<?xml version="1.0" standalone="no"?>
<!DOCTYPE svg PUBLIC "-//W3C//DTD SVG 1.1//EN" "http://www.w3.org/Graphics/SVG/1.1/DTD/svg11.dtd" >
<svg xmlns="http://www.w3.org/2000/svg">
<metadata>Generated by IcoMoon</metadata>
<defs>
<font id="icomoon" horiz-adv-x="1024">
<font-face units-per-em="1024" ascent="960" descent="-64" />
<missing-glyph horiz-adv-x="1024" />
<glyph unicode="&#x20;" horiz-adv-x="512" d="" />
<glyph unicode="&#xe034;" glyph-name="pause" d="M659.758 938.667h292.081v-1024h-292.081v1024zM72.161-85.333v1024h292.081v-1024h-292.081z" />
<glyph unicode="&#xe0b7;" glyph-name="chat" d="M768 596.667v86h-512v-86h512zM598 340.667v86h-342v-86h342zM256 554.667v-86h512v86h-512zM854 852.667c46 0 84-38 84-84v-512c0-46-38-86-84-86h-598l-170-170v768c0 46 38 84 84 84h684z" />
<glyph unicode="&#xe152;" glyph-name="filter_list" d="M256 384.667v84h512v-84h-512zM128 682.667h768v-86h-768v86zM426 170.667v86h172v-86h-172z" />
<glyph unicode="&#xe254;" glyph-name="mode_edit" d="M884 638.667l-78-78-160 160 78 78c16 16 44 16 60 0l100-100c16-16 16-44 0-60zM128 202.667l472 472 160-160-472-472h-160v160z" />
<glyph unicode="&#xe53b;" glyph-name="layers" d="M512 256.667c-128.024 99.309-255.626 199.040-384 298l384 298 384-298c-128.375-98.958-255.974-198.693-384-298zM512 146.667l314 246 70-54-384-298-384 298 70 54z" />
<glyph unicode="&#xe5c4;" glyph-name="arrow_back" d="M854 468.667v-84h-520l238-240-60-60-342 342 342 342 60-60-238-240h520z" />
<glyph unicode="&#xe5ca;" glyph-name="check" d="M384 248.667l452 452 60-60-512-512-238 238 60 60z" />
<glyph unicode="&#xe5cf;" glyph-name="expand_more" d="M904 718.667l120-120-512-512-512 512 120 120 392-392z" />
<glyph unicode="&#xe5d2;" glyph-name="menu" d="M0 768h1024v-114.667h-1024v114.667zM0 370.667v112h1024v-112h-1024zM0 85.334v114.667h1024v-114.667h-1024z" />
<glyph unicode="&#xe5d3;" glyph-name="more_horiz" d="M512 512.667c46 0 86-40 86-86s-40-86-86-86-86 40-86 86 40 86 86 86zM768 512.667c46 0 86-40 86-86s-40-86-86-86-86 40-86 86 40 86 86 86zM256 512.667c46 0 86-40 86-86s-40-86-86-86-86 40-86 86 40 86 86 86z" />
<glyph unicode="&#xe5d4;" glyph-name="more_vert" d="M512 256.667c46 0 86-40 86-86s-40-86-86-86-86 40-86 86 40 86 86 86zM512 512.667c46 0 86-40 86-86s-40-86-86-86-86 40-86 86 40 86 86 86zM512 596.667c-46 0-86 40-86 86s40 86 86 86 86-40 86-86-40-86-86-86z" />
<glyph unicode="&#xe900;" glyph-name="search" d="M1007.333 11.747l-192.724 192.78c59.62 76.23 95.603 173.455 95.603 279.084 0 251.375-203.779 455.154-455.154 455.154s-455.154-203.779-455.154-455.154c0-251.375 203.779-455.154 455.154-455.154 105.63 0 202.855 35.982 280.088 96.358l-1.004-0.756 192.559-192.724c10.153-9.585 23.882-15.476 38.987-15.476 31.395 0 56.846 25.451 56.846 56.846 0 15.105-5.891 28.834-15.502 39.015l0.026-0.028zM455.871 141.996c-188.249 0-340.855 152.606-340.855 340.855s152.606 340.855 340.855 340.855c188.249 0 340.855-152.606 340.855-340.855v0c0-0.016 0-0.036 0-0.055 0-188.249-152.606-340.855-340.855-340.855v0z" />
<glyph unicode="&#xe901;" glyph-name="layer" horiz-adv-x="967" d="M482.718 71.856l-395.735 307.494-86.983-67.462 483.277-375.888 483.277 375.888-87.542 68.208zM483.277 208.225l483.277 375.701-483.277 376.074-483.277-375.888 87.542-68.208zM483.277 824.144l308.239-240.031-308.239-240.031-308.239 240.031z" />
<glyph unicode="&#xe902;" glyph-name="delete" horiz-adv-x="796" d="M57.154 49.814c0.187-62.752 51.007-113.573 113.741-113.759h455.275c62.752 0.187 113.573 51.007 113.759 113.741v682.63h-682.776zM170.694 618.557h455.257v-568.743h-455.257zM597.374 903.011l-56.935 56.989h-284.399l-56.935-56.88h-199.107v-113.759h796.426v113.759z" />
<glyph unicode="&#xe903;" glyph-name="save" d="M796.444 960h-682.667c-62.838 0-113.778-50.94-113.778-113.778v0-796.444c0-62.838 50.94-113.778 113.778-113.778v0h796.444c62.76 0.193 113.584 51.018 113.778 113.759v682.686zM910.222 49.778h-796.444v796.444h635.449l160.996-160.996zM512 448c-94.257 0-170.667-76.41-170.667-170.667s76.41-170.667 170.667-170.667c94.257 0 170.667 76.41 170.667 170.667v0c0 94.257-76.41 170.667-170.667 170.667v0zM170.667 789.333h512v-227.556h-512z" />
<glyph unicode="&#xe904;" glyph-name="settings" d="M892.414 397.825c2.135 14.947 3.433 32.336 3.583 49.999l0.001 0.176c-0.151 17.839-1.448 35.228-3.823 52.273l0.239-2.098 108.032 84.48c5.86 4.73 9.576 11.914 9.576 19.964 0 4.715-1.274 9.131-3.497 12.924l0.066-0.121-102.399 177.152c-4.508 7.708-12.745 12.803-22.171 12.803-0.125 0-0.251-0.001-0.376-0.002h0.019c-0.079 0.001-0.174 0.001-0.269 0.001-3.031 0-5.93-0.564-8.599-1.592l0.163 0.055-127.487-51.2c-24.972 19.528-53.484 36.367-84.068 49.256l-2.46 0.92-19.456 135.68c-1.768 12.221-12.17 21.506-24.741 21.506-0.121 0-0.242-0.001-0.364-0.002h-204.782c-0.103 0.001-0.224 0.002-0.346 0.002-12.572 0-22.975-9.286-24.726-21.372l-0.016-0.134-19.456-135.68c-33.033-14.058-61.521-30.876-87.447-50.857l0.919 0.682-127.487 51.2c-2.747 0.964-5.914 1.525-9.211 1.536h-0.005c-9.366-0.059-17.533-5.137-21.95-12.679l-0.066-0.121-102.399-177.152c-2.224-3.684-3.54-8.134-3.54-12.89 0-8.047 3.766-15.214 9.63-19.836l0.054-0.041 108.032-84.48c-2.116-14.927-3.413-32.315-3.582-49.973l-0.001-0.203c0.172-17.861 1.469-35.249 3.824-52.298l-0.24 2.123-108.032-84.48c-5.86-4.73-9.576-11.914-9.576-19.964 0-4.715 1.274-9.131 3.497-12.924l-0.066 0.121 102.399-177.152c4.508-7.708 12.745-12.803 22.171-12.803 0.125 0 0.251 0.001 0.376 0.002h-0.019c0.079-0.001 0.174-0.001 0.269-0.001 3.031 0 5.93 0.564 8.599 1.592l-0.163-0.055 127.487 51.2c24.972-19.528 53.484-36.367 84.068-49.256l2.46-0.92 19.456-135.68c1.768-12.221 12.17-21.506 24.741-21.506 0.121 0 0.242 0.001 0.364 0.002h204.782c0.103-0.001 0.224-0.002 0.346-0.002 12.572 0 22.975 9.286 24.726 21.372l0.016 0.134 19.456 135.68c33.033 14.058 61.521 30.876 87.447 50.857l-0.919-0.682 127.487-51.2c2.747-0.964 5.914-1.525 9.211-1.536h0.005c9.366 0.059 17.533 5.137 21.95 12.679l0.066 0.121 102.399 177.152c2.158 3.673 3.432 8.089 3.432 12.804 0 8.051-3.716 15.234-9.527 19.926l-0.049 0.038zM791.038 485.376c1.63-11.218 2.56-24.169 2.56-37.338 0-0.013 0-0.028 0-0.041v0.002c0-10.752-1.024-22.016-2.56-37.376l-7.168-57.855 45.567-35.84 55.296-43.008-35.84-61.952-65.024 26.112-53.247 21.504-46.080-34.815c-18.511-14.273-39.57-26.789-62.070-36.624l-1.931-0.752-54.272-22.016-8.192-57.855-10.24-69.12h-71.679l-9.728 69.12-8.192 57.855-54.272 22.016c-24.042 10.23-44.772 22.414-63.677 36.866l0.701-0.514-46.592 35.84-54.272-22.016-65.024-26.112-35.84 61.952 55.296 43.008 45.567 35.84-7.168 57.855c-1.536 15.872-2.56 27.648-2.56 37.887s1.024 22.016 2.56 37.376l7.168 57.855-45.567 35.84-55.296 43.008 35.84 61.952 65.024-26.112 53.247-21.504 46.080 34.815c18.511 14.273 39.57 26.789 62.070 36.624l1.931 0.752 54.272 22.016 8.192 57.855 10.24 69.12h71.168l9.728-69.12 8.192-57.855 54.272-22.016c24.042-10.23 44.772-22.414 63.677-36.866l-0.701 0.514 46.592-35.84 54.272 22.016 65.024 26.112 35.84-61.952-54.783-43.52-45.567-35.84 7.168-57.855zM512 652.8c-113.108 0-204.8-91.692-204.8-204.8s91.692-204.8 204.8-204.8c113.108 0 204.8 91.692 204.8 204.8v0c0 113.108-91.692 204.8-204.8 204.8v0zM512 345.601c-56.553 0-102.399 45.846-102.399 102.399s45.846 102.399 102.399 102.399c56.553 0 102.399-45.846 102.399-102.399v0c-0.174-56.484-45.917-102.225-102.382-102.399h-0.017z" />
<glyph unicode="&#xe905;" glyph-name="low_priority" d="M409.6 89.599h-409.6v102.4h409.6zM409.6 371.2h-409.6v102.4h409.6zM409.6 652.8h-409.6v102.4h409.6zM1024.001 422.4c-0.378 183.648-149.152 332.422-332.764 332.8h-25.636v102.4l-153.6-153.6 153.6-153.6v102.4h25.6c127.247 0 230.4-103.153 230.4-230.4s-103.153-230.4-230.4-230.4v0h-179.2v-102.4h179.2c183.648 0.378 332.422 149.152 332.8 332.764v0.036z" />
<glyph unicode="&#xe906;" glyph-name="checkmark" d="M512 960c-282.77 0-512-229.23-512-512s229.23-512 512-512c282.77 0 512 229.23 512 512v0c0 282.77-229.23 512-512 512v0zM512 38.4c-226.216 0-409.6 183.384-409.6 409.6s183.384 409.6 409.6 409.6c226.216 0 409.6-183.384 409.6-409.6v0c-0.32-226.087-183.513-409.28-409.569-409.6h-0.031zM747.008 674.304l-337.408-337.408-132.608 132.096-72.192-72.192 204.8-204.8 409.6 409.6z" />
<glyph unicode="&#xe907;" d="M511.968 960c-282.699 0-511.872-229.173-511.872-511.872s229.173-511.872 511.872-511.872c282.699 0 511.872 229.173 511.872 511.872v0c0 282.699-229.173 511.872-511.872 511.872v0z" />
<glyph unicode="&#xe908;" d="M314.289 243.955c33.336-34.013 75.057-59.684 121.823-73.671l2.018-0.518c22.587-6.798 48.544-10.711 75.414-10.711 63.451 0 121.806 21.819 167.971 58.363l-0.565-0.432c29.747 23.518 53.937 52.665 71.226 85.969l0.692 1.465c18.431 35.491 29.241 77.489 29.241 122.013 0 0.092 0 0.183 0 0.275v-0.014q0 4.895-0.192 9.822c-0.792 26.262-5.004 51.233-12.207 74.901l0.529-2.024c-7.456 24.544-17.796 45.937-30.899 65.308l0.538-0.844c-1.344 1.984-2.687 3.935-4.095 5.887-18.897 25.857-42.095 47.322-68.735 63.74l-1.039 0.596c-30.478 18.89-65.985 33.308-103.881 41.216l-2.141 0.374c0 2.015-0.32 4.063-0.32 6.206 0.134 89.312 56.961 165.316 136.415 193.962l1.439 0.453c7.518 2.687 10.749 4.895 11.101 6.622 0.013 0.115 0.021 0.249 0.021 0.384s-0.008 0.269-0.023 0.4l0.001-0.016c-0.8 2.463-7.87 3.775-15.74 3.967-1.424 0.022-3.106 0.034-4.79 0.034-13.588 0-26.985-0.815-40.147-2.397l1.587 0.155c-24.443-2.816-46.070-6.817-67.173-12.139l3.509 0.75c-8.382-2.047-16.956-4.351-25.594-6.942-13.501-3.999-27.289-8.638-41.238-13.981-52.934-20.239-98.586-47.538-138.548-81.352l0.694 0.572c-67.968-57.543-117.779-134.608-140.855-222.506l-0.678-3.038c-5.453-21.134-9.321-45.865-10.796-71.237l-0.049-1.065c0-1.792-0.16-3.519-0.256-5.279-0.192-4.335-0.301-9.42-0.301-14.53 0-13.172 0.725-26.175 2.138-38.97l-0.141 1.577c2.057-18.788 5.298-35.672 9.756-52.054l-0.542 2.339c0.544-2.207 1.184-4.383 1.792-6.59 8.927-30.806 21.378-57.707 37.23-82.203l-0.727 1.2c11.144-17.306 23.186-32.367 36.59-46.093l-0.055 0.056z" />
<glyph unicode="&#xe909;" glyph-name="alarm" horiz-adv-x="1147" d="M179.256 254.785h-63.631c-0.432-0.006-0.942-0.009-1.453-0.009-62.324 0-112.986 49.929-114.171 111.969l-0.002 0.111v223.568c1.281 62.077 51.905 111.909 114.169 111.909 0.532 0 1.063-0.004 1.594-0.011l-0.080 0.001h242.887l508.933 257.39v-962.433l-503.143 257.39h-63.631l46.261-302.161-115.625-16.796zM427.933 612.896v-268.569l318.098-162.288v593.316zM115.625 366.684h202.415v223.568h-202.415zM965.758 305.117c40.179 40.057 65.039 95.46 65.039 156.67s-24.86 116.613-65.033 156.664l-0.005 0.005 80.943 83.924c61.641-60.534 99.844-144.755 99.844-237.9s-38.203-177.366-99.794-237.851l-0.050-0.049z" />
<glyph unicode="&#xe90a;" glyph-name="items" d="M455.111 732.444h341.333v-113.778h-341.333zM455.111 504.889h341.333v-113.778h-341.333zM455.111 277.333h341.333v-113.778h-341.333zM227.556 732.444h113.778v-113.778h-113.778zM227.556 504.889h113.778v-113.778h-113.778zM227.556 277.333h113.778v-113.778h-113.778zM972.8 960h-921.6c-28.277 0-51.2-22.923-51.2-51.2v0-921.6c1.902-27.478 23.722-49.298 51.028-51.19l0.172-0.010h921.6c26.557 3.906 47.294 24.643 51.16 50.872l0.040 0.328v921.6c-1.902 27.478-23.722 49.298-51.028 51.19l-0.172 0.010zM910.222 49.778h-796.444v796.444h796.444z" />
<glyph unicode="&#xe90b;" glyph-name="textsms" d="M921.595 960h-819.188c-56.494-0.155-102.25-45.911-102.405-102.391v-921.609l204.811 204.811h716.783c56.494 0.155 102.25 45.911 102.405 102.391v614.392c-0.155 56.494-45.911 102.25-102.391 102.405h-0.014zM921.595 243.217h-716.783l-102.405-102.405v716.783h819.188zM236.809 499.203h582.379v-102.405h-582.379zM236.809 704.014h582.379v-102.405h-582.379z" />
<glyph unicode="&#xe90c;" glyph-name="notifications" d="M512 21.346c47.082 0.134 85.212 38.265 85.346 85.334v0.013h-170.693c0.134-47.082 38.265-85.212 85.334-85.346h0.013zM768 277.346v213.346c0 130.993-69.553 240.64-192 269.666v28.987c0 35.346-28.654 64-64 64s-64-28.654-64-64v0-29.026c-122.092-29.026-192-138.24-192-269.666v-213.346l-85.346-85.307v-42.654h682.654v42.654zM682.654 234.693h-341.346v256c0 105.826 64.433 192 170.654 192s170.693-86.213 170.693-192z" />
<glyph unicode="&#xe90d;" glyph-name="dashboard" horiz-adv-x="1255" d="M627.596 468.645c-0.012 0-0.025 0-0.039 0-24.736 0-47.966-6.444-68.105-17.744l0.702 0.362-231.401 231.401c-6.903 6.192-16.074 9.978-26.129 9.978-21.651 0-39.202-17.551-39.202-39.202 0-10.094 3.815-19.298 10.083-26.247l-0.031 0.035 231.401-231.297c-10.924-19.504-17.357-42.8-17.357-67.598 0-77.492 62.82-140.313 140.313-140.313s140.313 62.82 140.313 140.313c0 77.492-62.82 140.313-140.313 140.313-0.027 0-0.055 0-0.082 0h0.004zM627.596 266.528c-0.088 0-0.193-0.001-0.297-0.001-34.018 0-61.596 27.577-61.596 61.596 0 15.616 5.811 29.874 15.389 40.731l-0.058-0.067c2.465 1.642 4.517 3.695 6.11 6.080l0.050 0.079c10.753 9.341 24.893 15.033 40.362 15.033 34.076 0 61.7-27.624 61.7-61.7 0-34.062-27.601-61.677-61.658-61.7h-0.002zM627.596 585.572c21.651 0 39.202 17.551 39.202 39.202v0 165.682c0.033 0.604 0.052 1.311 0.052 2.022 0 21.651-17.551 39.202-39.202 39.202s-39.202-17.551-39.202-39.202c0-0.711 0.019-1.418 0.056-2.12l-0.004 0.098v-165.629c0-0.016 0-0.034 0-0.052 0-21.614 17.492-39.142 39.092-39.202h0.006zM1089.458 367.586h-165.525c-20.763-1.106-37.18-18.21-37.18-39.15s16.417-38.044 37.082-39.146l0.098-0.004h165.525c20.763 1.106 37.18 18.21 37.18 39.15s-16.417 38.044-37.082 39.146l-0.098 0.004zM331.154 367.586h-165.525c-20.763-1.106-37.18-18.21-37.18-39.15s16.417-38.044 37.082-39.146l0.098-0.004h165.525c20.763 1.106 37.18 18.21 37.18 39.15s-16.417 38.044-37.082 39.146l-0.098 0.004zM982.084 682.977c-7.094 7.093-16.894 11.48-27.718 11.48s-20.624-4.387-27.718-11.48l-117.658-117.658c-7.291-7.125-11.812-17.058-11.812-28.046 0-21.651 17.551-39.202 39.202-39.202 10.988 0 20.921 4.521 28.039 11.805l117.665 117.665c7.093 7.094 11.48 16.894 11.48 27.718s-4.387 20.624-11.48 27.718v0zM627.596 960c-346.386-0.534-627.040-281.206-627.544-627.548v-0.048c-0.003-0.701-0.004-1.53-0.004-2.36 0-143.171 48.404-275.036 129.739-380.124l-1.062 1.428c7.223-9.545 18.558-15.651 31.318-15.66h935.366c12.762 0.009 24.096 6.115 31.249 15.562l0.071 0.098c80.273 103.66 128.677 235.526 128.677 378.697 0 0.83-0.002 1.659-0.005 2.488v-0.127c-0.505 346.482-281.307 627.21-627.768 627.596h-0.037zM1075.521 15.187h-895.85c-63.348 87.71-101.321 197.39-101.321 315.939 0 0.413 0 0.825 0.001 1.238v-0.064c0 303.282 245.858 549.14 549.14 549.14s549.14-245.858 549.14-549.14v0c0.001-0.432 0.002-0.943 0.002-1.455 0-118.518-37.953-228.171-102.369-317.469l1.1 1.602z" />
<glyph unicode="&#xe90e;" glyph-name="items-check" horiz-adv-x="1005" d="M921.158 960h-837.78c-46.095-0.030-83.454-37.389-83.483-83.481v-857.036c0.090-46.071 37.413-83.394 83.475-83.483h837.789c46.071 0.090 83.394 37.413 83.483 83.475v857.042c-0.030 46.095-37.389 83.454-83.481 83.483h-0.003zM904.482 36.212h-804.323v823.629h804.271zM829.311 667.992c0-0.016 0-0.034 0-0.053 0-27.629-22.398-50.027-50.027-50.027-0.019 0-0.037 0-0.056 0h-553.818c-0.97-0.067-2.103-0.105-3.244-0.105-27.658 0-50.080 22.421-50.080 50.080s22.421 50.080 50.080 50.080c1.142 0 2.274-0.038 3.397-0.113l-0.152 0.008h554.084c27.459-0.178 49.668-22.405 49.816-49.855v-0.014zM414.734 448.105c-0.030-27.646-22.433-50.050-50.077-50.080h-139.247c-26.226 1.755-46.835 23.458-46.835 49.974s20.609 48.22 46.683 49.966l0.152 0.008h139.244c27.572-0.029 49.93-22.313 50.079-49.855v-0.014zM414.734 225.535c-0.030-27.646-22.433-50.050-50.077-50.080h-139.247c-0.97-0.067-2.103-0.105-3.244-0.105-27.658 0-50.080 22.421-50.080 50.080s22.421 50.080 50.080 50.080c1.142 0 2.274-0.038 3.397-0.113l-0.152 0.008h139.244c27.549-0.089 49.871-22.337 50.079-49.849v-0.020zM815.633 400.498l-173.595-173.963c-9.075-9.092-21.622-14.716-35.482-14.716s-26.406 5.625-35.481 14.716l-66.809 66.809c-9.41 9.132-15.249 21.898-15.249 36.028 0 27.716 22.468 50.185 50.185 50.185 14.13 0 26.895-5.839 36.016-15.237l31.575-31.575 138.455 138.403c8.921 8.338 20.942 13.458 34.159 13.458 27.658 0 50.080-22.421 50.080-50.080 0-13.204-5.11-25.214-13.46-34.161l0.027 0.029z" />
<glyph unicode="&#xe910;" glyph-name="copy" d="M711.875 960h-547.499c-50.32-0.166-91.068-40.914-91.233-91.218v-638.797h91.234v638.781h547.499zM666.234 777.484h-319.39c-50.207-0.166-90.843-40.905-90.843-91.136 0-0.034 0-0.069 0-0.103v0.005l-0.439-638.781c0-0.029 0-0.064 0-0.098 0-50.213 40.609-90.941 90.776-91.135h502.266c50.32 0.166 91.068 40.914 91.233 91.218v456.281zM346.843 47.47v638.781h273.749v-228.108h228.108v-410.624z" />
<glyph unicode="&#xe911;" glyph-name="stop" d="M853.333 789.333v-682.667h-682.667v682.667h682.667zM1024 960h-1024v-1024h1024z" />
<glyph unicode="&#xe912;" glyph-name="resume" d="M170.206-64h-170.148v1024h170.148zM1024 448l-723.217 512v-1024zM471.047 630.59l257.699-182.59-257.699-182.59z" />
<glyph unicode="&#xe913;" glyph-name="play" d="M271.053 699.648l376.883-240.282-376.883-240.282v480.563zM128 960v-1001.267l786.944 500.634z" />
<glyph unicode="&#xe914;" glyph-name="info" d="M460.8 704h102.4v-102.4h-102.4zM460.8 499.2h102.4v-307.2h-102.4zM512 960c-282.77 0-512-229.23-512-512s229.23-512 512-512c282.77 0 512 229.23 512 512v0c0 282.77-229.23 512-512 512v0zM512 38.4c-226.216 0-409.6 183.384-409.6 409.6s183.384 409.6 409.6 409.6c226.216 0 409.6-183.384 409.6-409.6v0c-0.318-226.088-183.512-409.283-409.57-409.6h-0.030z" />
</font>
</defs>
</svg>
