<?xml version="1.0" encoding="UTF-8" standalone="no"?>
<!DOCTYPE svg PUBLIC "-//W3C//DTD SVG 1.1//EN"
 "http://www.w3.org/Graphics/SVG/1.1/DTD/svg11.dtd">
<!-- Generated by graphviz version 2.40.1 (20161225.0304)
 -->
<!-- Title: dependencies Pages: 1 -->
<svg width="1344pt" height="284pt"
 viewBox="0.00 0.00 1344.00 284.00" xmlns="http://www.w3.org/2000/svg" xmlns:xlink="http://www.w3.org/1999/xlink">
<g id="graph0" class="graph" transform="scale(1 1) rotate(0) translate(4 280)">
<title>dependencies</title>
<polygon fill="#ffffff" stroke="transparent" points="-4,4 -4,-280 1340,-280 1340,4 -4,4"/>
<text text-anchor="start" x="647.0091" y="-42.4" font-family="sans-serif" font-weight="bold" font-size="14.00" fill="#000000">Legend</text>
<polygon fill="#ffffb3" stroke="transparent" points="434,-10 434,-30 454,-30 454,-10 434,-10"/>
<text text-anchor="start" x="457.629" y="-15.4" font-family="sans-serif" font-size="14.00" fill="#000000"> &#160;Declarations</text>
<polygon fill="#8dd3c7" stroke="transparent" points="547,-10 547,-30 567,-30 567,-10 547,-10"/>
<text text-anchor="start" x="570.7251" y="-15.4" font-family="sans-serif" font-size="14.00" fill="#000000"> &#160;Module</text>
<polygon fill="#80b1d3" stroke="transparent" points="633,-10 633,-30 653,-30 653,-10 633,-10"/>
<text text-anchor="start" x="656.7812" y="-15.4" font-family="sans-serif" font-size="14.00" fill="#000000"> &#160;Bootstrap</text>
<polygon fill="#fdb462" stroke="transparent" points="730,-10 730,-30 750,-30 750,-10 730,-10"/>
<text text-anchor="start" x="753.6732" y="-15.4" font-family="sans-serif" font-size="14.00" fill="#000000"> &#160;Providers</text>
<polygon fill="#fb8072" stroke="transparent" points="826,-10 826,-30 846,-30 846,-10 826,-10"/>
<text text-anchor="start" x="849.7258" y="-15.4" font-family="sans-serif" font-size="14.00" fill="#000000"> &#160;Exports</text>
<g id="clust1" class="cluster">
<title>cluster_SegmentModule</title>
<polygon fill="none" stroke="#000000" stroke-dasharray="1,5" points="8,-70 8,-268 1328,-268 1328,-70 8,-70"/>
</g>
<g id="clust2" class="cluster">
<title>cluster_SegmentModule_declarations</title>
<polygon fill="none" stroke="#000000" points="444,-78 444,-130 1320,-130 1320,-78 444,-78"/>
</g>
<g id="clust8" class="cluster">
<title>cluster_SegmentModule_imports</title>
<polygon fill="none" stroke="#000000" points="158,-78 158,-130 436,-130 436,-78 158,-78"/>
</g>
<g id="clust9" class="cluster">
<title>cluster_SegmentModule_exports</title>
<polygon fill="none" stroke="#000000" points="552,-208 552,-260 702,-260 702,-208 552,-208"/>
</g>
<g id="clust11" class="cluster">
<title>cluster_SegmentModule_providers</title>
<polygon fill="none" stroke="#000000" points="16,-78 16,-130 150,-130 150,-78 16,-78"/>
</g>
<!-- SegmentAuditComponent -->
<g id="node1" class="node">
<title>SegmentAuditComponent</title>
<polygon fill="#ffffb3" stroke="#000000" points="1312.2133,-122 1149.7867,-122 1149.7867,-86 1312.2133,-86 1312.2133,-122"/>
<text text-anchor="middle" x="1231" y="-99.8" font-family="Times,serif" font-size="14.00" fill="#000000">SegmentAuditComponent</text>
</g>
<!-- SegmentModule -->
<g id="node6" class="node">
<title>SegmentModule</title>
<polygon fill="#8dd3c7" stroke="#000000" points="681.0438,-187 678.0438,-191 657.0438,-191 654.0438,-187 572.9562,-187 572.9562,-151 681.0438,-151 681.0438,-187"/>
<text text-anchor="middle" x="627" y="-164.8" font-family="Times,serif" font-size="14.00" fill="#000000">SegmentModule</text>
</g>
<!-- SegmentAuditComponent&#45;&gt;SegmentModule -->
<g id="edge1" class="edge">
<title>SegmentAuditComponent&#45;&gt;SegmentModule</title>
<path fill="none" stroke="#000000" d="M1231,-122.2921C1231,-144.2057 1231,-178 1231,-178 1231,-178 691.1325,-178 691.1325,-178"/>
<polygon fill="#000000" stroke="#000000" points="691.1326,-174.5001 681.1325,-178 691.1325,-181.5001 691.1326,-174.5001"/>
</g>
<!-- SegmentComponent -->
<g id="node2" class="node">
<title>SegmentComponent</title>
<polygon fill="#ffffb3" stroke="#000000" points="1132.3258,-122 1001.6742,-122 1001.6742,-86 1132.3258,-86 1132.3258,-122"/>
<text text-anchor="middle" x="1067" y="-99.8" font-family="Times,serif" font-size="14.00" fill="#000000">SegmentComponent</text>
</g>
<!-- SegmentComponent&#45;&gt;SegmentModule -->
<g id="edge2" class="edge">
<title>SegmentComponent&#45;&gt;SegmentModule</title>
<path fill="none" stroke="#000000" d="M1067,-122.1061C1067,-141.3391 1067,-169 1067,-169 1067,-169 691.3939,-169 691.3939,-169"/>
<polygon fill="#000000" stroke="#000000" points="691.394,-165.5001 681.3939,-169 691.3939,-172.5001 691.394,-165.5001"/>
</g>
<!-- SegmentConfigComponent -->
<g id="node3" class="node">
<title>SegmentConfigComponent</title>
<polygon fill="#ffffb3" stroke="#000000" points="983.7133,-122 814.2867,-122 814.2867,-86 983.7133,-86 983.7133,-122"/>
<text text-anchor="middle" x="899" y="-99.8" font-family="Times,serif" font-size="14.00" fill="#000000">SegmentConfigComponent</text>
</g>
<!-- SegmentConfigComponent&#45;&gt;SegmentModule -->
<g id="edge3" class="edge">
<title>SegmentConfigComponent&#45;&gt;SegmentModule</title>
<path fill="none" stroke="#000000" d="M899,-122.027C899,-138.3976 899,-160 899,-160 899,-160 691.0637,-160 691.0637,-160"/>
<polygon fill="#000000" stroke="#000000" points="691.0637,-156.5001 681.0637,-160 691.0636,-163.5001 691.0637,-156.5001"/>
</g>
<!-- SegmentDataComponent -->
<g id="node4" class="node">
<title>SegmentDataComponent</title>
<polygon fill="#ffffb3" stroke="#000000" points="796.252,-122 639.748,-122 639.748,-86 796.252,-86 796.252,-122"/>
<text text-anchor="middle" x="718" y="-99.8" font-family="Times,serif" font-size="14.00" fill="#000000">SegmentDataComponent</text>
</g>
<!-- SegmentDataComponent&#45;&gt;SegmentModule -->
<g id="edge4" class="edge">
<title>SegmentDataComponent&#45;&gt;SegmentModule</title>
<path fill="none" stroke="#000000" d="M660.4478,-122.1061C660.4478,-122.1061 660.4478,-140.991 660.4478,-140.991"/>
<polygon fill="#000000" stroke="#000000" points="656.9478,-140.9909 660.4478,-150.991 663.9478,-140.991 656.9478,-140.9909"/>
</g>
<!-- SegmentDetailsComponent -->
<g id="node5" class="node">
<title>SegmentDetailsComponent</title>
<polygon fill="#ffffb3" stroke="#000000" points="621.9776,-122 452.0224,-122 452.0224,-86 621.9776,-86 621.9776,-122"/>
<text text-anchor="middle" x="537" y="-99.8" font-family="Times,serif" font-size="14.00" fill="#000000">SegmentDetailsComponent</text>
</g>
<!-- SegmentDetailsComponent&#45;&gt;SegmentModule -->
<g id="edge5" class="edge">
<title>SegmentDetailsComponent&#45;&gt;SegmentModule</title>
<path fill="none" stroke="#000000" d="M597.3587,-122.1061C597.3587,-122.1061 597.3587,-140.991 597.3587,-140.991"/>
<polygon fill="#000000" stroke="#000000" points="593.8588,-140.9909 597.3587,-150.991 600.8588,-140.991 593.8588,-140.9909"/>
</g>
<!-- SegmentComponent  -->
<g id="node9" class="node">
<title>SegmentComponent </title>
<polygon fill="#fb8072" stroke="#000000" points="693.8255,-252 560.1745,-252 560.1745,-216 693.8255,-216 693.8255,-252"/>
<text text-anchor="middle" x="627" y="-229.8" font-family="Times,serif" font-size="14.00" fill="#000000">SegmentComponent </text>
</g>
<!-- SegmentModule&#45;&gt;SegmentComponent  -->
<g id="edge8" class="edge">
<title>SegmentModule&#45;&gt;SegmentComponent </title>
<path fill="none" stroke="#000000" stroke-dasharray="5,2" d="M627,-187.1061C627,-187.1061 627,-205.991 627,-205.991"/>
<polygon fill="#000000" stroke="#000000" points="623.5001,-205.9909 627,-215.991 630.5001,-205.991 623.5001,-205.9909"/>
</g>
<!-- SaveModalModule -->
<g id="node7" class="node">
<title>SaveModalModule</title>
<polygon fill="#8dd3c7" stroke="#000000" points="427.8118,-122 424.8118,-126 403.8118,-126 400.8118,-122 304.1882,-122 304.1882,-86 427.8118,-86 427.8118,-122"/>
<text text-anchor="middle" x="366" y="-99.8" font-family="Times,serif" font-size="14.00" fill="#000000">SaveModalModule</text>
</g>
<!-- SaveModalModule&#45;&gt;SegmentModule -->
<g id="edge6" class="edge">
<title>SaveModalModule&#45;&gt;SegmentModule</title>
<path fill="none" stroke="#000000" d="M366,-122.027C366,-138.3976 366,-160 366,-160 366,-160 562.9206,-160 562.9206,-160"/>
<polygon fill="#000000" stroke="#000000" points="562.9207,-163.5001 572.9206,-160 562.9206,-156.5001 562.9207,-163.5001"/>
</g>
<!-- TextEditorModule -->
<g id="node8" class="node">
<title>TextEditorModule</title>
<polygon fill="#8dd3c7" stroke="#000000" points="286.2022,-122 283.2022,-126 262.2022,-126 259.2022,-122 165.7978,-122 165.7978,-86 286.2022,-86 286.2022,-122"/>
<text text-anchor="middle" x="226" y="-99.8" font-family="Times,serif" font-size="14.00" fill="#000000">TextEditorModule</text>
</g>
<!-- TextEditorModule&#45;&gt;SegmentModule -->
<g id="edge7" class="edge">
<title>TextEditorModule&#45;&gt;SegmentModule</title>
<path fill="none" stroke="#000000" d="M226,-122.1061C226,-141.3391 226,-169 226,-169 226,-169 562.9194,-169 562.9194,-169"/>
<polygon fill="#000000" stroke="#000000" points="562.9194,-172.5001 572.9194,-169 562.9193,-165.5001 562.9194,-172.5001"/>
</g>
<!-- auditService -->
<g id="node10" class="node">
<title>auditService</title>
<ellipse fill="#fdb462" stroke="#000000" cx="83" cy="-104" rx="59.1064" ry="18"/>
<text text-anchor="middle" x="83" y="-99.8" font-family="Times,serif" font-size="14.00" fill="#000000">auditService</text>
</g>
<!-- auditService&#45;&gt;SegmentModule -->
<g id="edge9" class="edge">
<title>auditService&#45;&gt;SegmentModule</title>
<path fill="none" stroke="#000000" d="M83,-122.2921C83,-144.2057 83,-178 83,-178 83,-178 562.8504,-178 562.8504,-178"/>
<polygon fill="#000000" stroke="#000000" points="562.8504,-181.5001 572.8504,-178 562.8503,-174.5001 562.8504,-181.5001"/>
</g>
</g>
</svg>
