<?xml version="1.0" encoding="UTF-8" standalone="no"?>
<!DOCTYPE svg PUBLIC "-//W3C//DTD SVG 1.1//EN"
 "http://www.w3.org/Graphics/SVG/1.1/DTD/svg11.dtd">
<!-- Generated by graphviz version 2.40.1 (20161225.0304)
 -->
<!-- Title: dependencies Pages: 1 -->
<svg width="1157pt" height="284pt"
 viewBox="0.00 0.00 1157.00 284.00" xmlns="http://www.w3.org/2000/svg" xmlns:xlink="http://www.w3.org/1999/xlink">
<g id="graph0" class="graph" transform="scale(1 1) rotate(0) translate(4 280)">
<title>dependencies</title>
<polygon fill="#ffffff" stroke="transparent" points="-4,4 -4,-280 1153,-280 1153,4 -4,4"/>
<text text-anchor="start" x="553.5091" y="-42.4" font-family="sans-serif" font-weight="bold" font-size="14.00" fill="#000000">Legend</text>
<polygon fill="#ffffb3" stroke="transparent" points="340.5,-10 340.5,-30 360.5,-30 360.5,-10 340.5,-10"/>
<text text-anchor="start" x="364.129" y="-15.4" font-family="sans-serif" font-size="14.00" fill="#000000"> &#160;Declarations</text>
<polygon fill="#8dd3c7" stroke="transparent" points="453.5,-10 453.5,-30 473.5,-30 473.5,-10 453.5,-10"/>
<text text-anchor="start" x="477.2251" y="-15.4" font-family="sans-serif" font-size="14.00" fill="#000000"> &#160;Module</text>
<polygon fill="#80b1d3" stroke="transparent" points="539.5,-10 539.5,-30 559.5,-30 559.5,-10 539.5,-10"/>
<text text-anchor="start" x="563.2812" y="-15.4" font-family="sans-serif" font-size="14.00" fill="#000000"> &#160;Bootstrap</text>
<polygon fill="#fdb462" stroke="transparent" points="636.5,-10 636.5,-30 656.5,-30 656.5,-10 636.5,-10"/>
<text text-anchor="start" x="660.1732" y="-15.4" font-family="sans-serif" font-size="14.00" fill="#000000"> &#160;Providers</text>
<polygon fill="#fb8072" stroke="transparent" points="732.5,-10 732.5,-30 752.5,-30 752.5,-10 732.5,-10"/>
<text text-anchor="start" x="756.2258" y="-15.4" font-family="sans-serif" font-size="14.00" fill="#000000"> &#160;Exports</text>
<g id="clust1" class="cluster">
<title>cluster_AppModule</title>
<polygon fill="none" stroke="#000000" stroke-dasharray="1,5" points="8,-70 8,-268 1141,-268 1141,-70 8,-70"/>
</g>
<g id="clust2" class="cluster">
<title>cluster_AppModule_declarations</title>
<polygon fill="none" stroke="#000000" points="1011,-78 1011,-130 1133,-130 1133,-78 1011,-78"/>
</g>
<g id="clust4" class="cluster">
<title>cluster_AppModule_imports</title>
<polygon fill="none" stroke="#000000" points="753,-78 753,-130 1003,-130 1003,-78 753,-78"/>
</g>
<g id="clust6" class="cluster">
<title>cluster_AppModule_bootstrap</title>
<polygon fill="none" stroke="#000000" points="587,-208 587,-260 711,-260 711,-208 587,-208"/>
</g>
<g id="clust7" class="cluster">
<title>cluster_AppModule_providers</title>
<polygon fill="none" stroke="#000000" points="16,-78 16,-130 745,-130 745,-78 16,-78"/>
</g>
<!-- AppComponent -->
<g id="node1" class="node">
<title>AppComponent</title>
<polygon fill="#ffffb3" stroke="#000000" points="1124.9399,-122 1019.0601,-122 1019.0601,-86 1124.9399,-86 1124.9399,-122"/>
<text text-anchor="middle" x="1072" y="-99.8" font-family="Times,serif" font-size="14.00" fill="#000000">AppComponent</text>
</g>
<!-- AppModule -->
<g id="node2" class="node">
<title>AppModule</title>
<polygon fill="#8dd3c7" stroke="#000000" points="690.6571,-187 687.6571,-191 666.6571,-191 663.6571,-187 607.3429,-187 607.3429,-151 690.6571,-151 690.6571,-187"/>
<text text-anchor="middle" x="649" y="-164.8" font-family="Times,serif" font-size="14.00" fill="#000000">AppModule</text>
</g>
<!-- AppComponent&#45;&gt;AppModule -->
<g id="edge1" class="edge">
<title>AppComponent&#45;&gt;AppModule</title>
<path fill="none" stroke="#000000" d="M1072,-122.2921C1072,-144.2057 1072,-178 1072,-178 1072,-178 700.7165,-178 700.7165,-178"/>
<polygon fill="#000000" stroke="#000000" points="700.7166,-174.5001 690.7165,-178 700.7165,-181.5001 700.7166,-174.5001"/>
</g>
<!-- AppComponent  -->
<g id="node5" class="node">
<title>AppComponent </title>
<polygon fill="#80b1d3" stroke="#000000" points="703.439,-252 594.561,-252 594.561,-216 703.439,-216 703.439,-252"/>
<text text-anchor="middle" x="649" y="-229.8" font-family="Times,serif" font-size="14.00" fill="#000000">AppComponent </text>
</g>
<!-- AppModule&#45;&gt;AppComponent  -->
<g id="edge4" class="edge">
<title>AppModule&#45;&gt;AppComponent </title>
<path fill="none" stroke="#000000" stroke-dasharray="1,5" d="M649,-187.1061C649,-187.1061 649,-205.991 649,-205.991"/>
<polygon fill="#000000" stroke="#000000" points="645.5001,-205.9909 649,-215.991 652.5001,-205.991 645.5001,-205.9909"/>
</g>
<!-- LayoutModule -->
<g id="node3" class="node">
<title>LayoutModule</title>
<polygon fill="#8dd3c7" stroke="#000000" points="994.7078,-122 991.7078,-126 970.7078,-126 967.7078,-122 895.2922,-122 895.2922,-86 994.7078,-86 994.7078,-122"/>
<text text-anchor="middle" x="945" y="-99.8" font-family="Times,serif" font-size="14.00" fill="#000000">LayoutModule</text>
</g>
<!-- LayoutModule&#45;&gt;AppModule -->
<g id="edge2" class="edge">
<title>LayoutModule&#45;&gt;AppModule</title>
<path fill="none" stroke="#000000" d="M945,-122.1061C945,-141.3391 945,-169 945,-169 945,-169 700.7818,-169 700.7818,-169"/>
<polygon fill="#000000" stroke="#000000" points="700.7818,-165.5001 690.7818,-169 700.7817,-172.5001 700.7818,-165.5001"/>
</g>
<!-- MainTabsModule -->
<g id="node4" class="node">
<title>MainTabsModule</title>
<polygon fill="#8dd3c7" stroke="#000000" points="877.3118,-122 874.3118,-126 853.3118,-126 850.3118,-122 760.6882,-122 760.6882,-86 877.3118,-86 877.3118,-122"/>
<text text-anchor="middle" x="819" y="-99.8" font-family="Times,serif" font-size="14.00" fill="#000000">MainTabsModule</text>
</g>
<!-- MainTabsModule&#45;&gt;AppModule -->
<g id="edge3" class="edge">
<title>MainTabsModule&#45;&gt;AppModule</title>
<path fill="none" stroke="#000000" d="M819,-122.027C819,-138.3976 819,-160 819,-160 819,-160 701.0225,-160 701.0225,-160"/>
<polygon fill="#000000" stroke="#000000" points="701.0225,-156.5001 691.0225,-160 701.0224,-163.5001 701.0225,-156.5001"/>
</g>
<!-- BreadcrumbService -->
<g id="node6" class="node">
<title>BreadcrumbService</title>
<ellipse fill="#fdb462" stroke="#000000" cx="649" cy="-104" rx="87.9394" ry="18"/>
<text text-anchor="middle" x="649" y="-99.8" font-family="Times,serif" font-size="14.00" fill="#000000">BreadcrumbService</text>
</g>
<!-- BreadcrumbService&#45;&gt;AppModule -->
<g id="edge5" class="edge">
<title>BreadcrumbService&#45;&gt;AppModule</title>
<path fill="none" stroke="#000000" d="M649,-122.1061C649,-122.1061 649,-140.991 649,-140.991"/>
<polygon fill="#000000" stroke="#000000" points="645.5001,-140.9909 649,-150.991 652.5001,-140.991 645.5001,-140.9909"/>
</g>
<!-- SaveModalService -->
<g id="node7" class="node">
<title>SaveModalService</title>
<ellipse fill="#fdb462" stroke="#000000" cx="459" cy="-104" rx="83.947" ry="18"/>
<text text-anchor="middle" x="459" y="-99.8" font-family="Times,serif" font-size="14.00" fill="#000000">SaveModalService</text>
</g>
<!-- SaveModalService&#45;&gt;AppModule -->
<g id="edge6" class="edge">
<title>SaveModalService&#45;&gt;AppModule</title>
<path fill="none" stroke="#000000" d="M459,-122.027C459,-138.3976 459,-160 459,-160 459,-160 597.3037,-160 597.3037,-160"/>
<polygon fill="#000000" stroke="#000000" points="597.3037,-163.5001 607.3037,-160 597.3037,-156.5001 597.3037,-163.5001"/>
</g>
<!-- SegmentsService -->
<g id="node8" class="node">
<title>SegmentsService</title>
<ellipse fill="#fdb462" stroke="#000000" cx="279" cy="-104" rx="77.5839" ry="18"/>
<text text-anchor="middle" x="279" y="-99.8" font-family="Times,serif" font-size="14.00" fill="#000000">SegmentsService</text>
</g>
<!-- SegmentsService&#45;&gt;AppModule -->
<g id="edge7" class="edge">
<title>SegmentsService&#45;&gt;AppModule</title>
<path fill="none" stroke="#000000" d="M279,-122.1061C279,-141.3391 279,-169 279,-169 279,-169 597.2755,-169 597.2755,-169"/>
<polygon fill="#000000" stroke="#000000" points="597.2756,-172.5001 607.2755,-169 597.2755,-165.5001 597.2756,-172.5001"/>
</g>
<!-- SideMenuService -->
<g id="node9" class="node">
<title>SideMenuService</title>
<ellipse fill="#fdb462" stroke="#000000" cx="104" cy="-104" rx="79.874" ry="18"/>
<text text-anchor="middle" x="104" y="-99.8" font-family="Times,serif" font-size="14.00" fill="#000000">SideMenuService</text>
</g>
<!-- SideMenuService&#45;&gt;AppModule -->
<g id="edge8" class="edge">
<title>SideMenuService&#45;&gt;AppModule</title>
<path fill="none" stroke="#000000" d="M104,-122.2921C104,-144.2057 104,-178 104,-178 104,-178 597.1397,-178 597.1397,-178"/>
<polygon fill="#000000" stroke="#000000" points="597.1397,-181.5001 607.1397,-178 597.1397,-174.5001 597.1397,-181.5001"/>
</g>
</g>
</svg>
