<?xml version="1.0" encoding="UTF-8" standalone="no"?>
<!DOCTYPE svg PUBLIC "-//W3C//DTD SVG 1.1//EN"
 "http://www.w3.org/Graphics/SVG/1.1/DTD/svg11.dtd">
<!-- Generated by graphviz version 2.40.1 (20161225.0304)
 -->
<!-- Title: dependencies Pages: 1 -->
<svg width="682pt" height="284pt"
 viewBox="0.00 0.00 682.00 284.00" xmlns="http://www.w3.org/2000/svg" xmlns:xlink="http://www.w3.org/1999/xlink">
<g id="graph0" class="graph" transform="scale(1 1) rotate(0) translate(4 280)">
<title>dependencies</title>
<polygon fill="#ffffff" stroke="transparent" points="-4,4 -4,-280 678,-280 678,4 -4,4"/>
<text text-anchor="start" x="316.0091" y="-42.4" font-family="sans-serif" font-weight="bold" font-size="14.00" fill="#000000">Legend</text>
<polygon fill="#ffffb3" stroke="transparent" points="103,-10 103,-30 123,-30 123,-10 103,-10"/>
<text text-anchor="start" x="126.629" y="-15.4" font-family="sans-serif" font-size="14.00" fill="#000000"> &#160;Declarations</text>
<polygon fill="#8dd3c7" stroke="transparent" points="216,-10 216,-30 236,-30 236,-10 216,-10"/>
<text text-anchor="start" x="239.7251" y="-15.4" font-family="sans-serif" font-size="14.00" fill="#000000"> &#160;Module</text>
<polygon fill="#80b1d3" stroke="transparent" points="302,-10 302,-30 322,-30 322,-10 302,-10"/>
<text text-anchor="start" x="325.7812" y="-15.4" font-family="sans-serif" font-size="14.00" fill="#000000"> &#160;Bootstrap</text>
<polygon fill="#fdb462" stroke="transparent" points="399,-10 399,-30 419,-30 419,-10 399,-10"/>
<text text-anchor="start" x="422.6732" y="-15.4" font-family="sans-serif" font-size="14.00" fill="#000000"> &#160;Providers</text>
<polygon fill="#fb8072" stroke="transparent" points="495,-10 495,-30 515,-30 515,-10 495,-10"/>
<text text-anchor="start" x="518.7258" y="-15.4" font-family="sans-serif" font-size="14.00" fill="#000000"> &#160;Exports</text>
<g id="clust1" class="cluster">
<title>cluster_LayoutModule</title>
<polygon fill="none" stroke="#000000" stroke-dasharray="1,5" points="8,-70 8,-268 666,-268 666,-70 8,-70"/>
</g>
<g id="clust2" class="cluster">
<title>cluster_LayoutModule_declarations</title>
<polygon fill="none" stroke="#000000" points="25,-78 25,-130 651,-130 651,-78 25,-78"/>
</g>
<g id="clust8" class="cluster">
<title>cluster_LayoutModule_exports</title>
<polygon fill="none" stroke="#000000" points="16,-208 16,-260 658,-260 658,-208 16,-208"/>
</g>
<!-- BreadcrumbComponent -->
<g id="node1" class="node">
<title>BreadcrumbComponent</title>
<polygon fill="#ffffb3" stroke="#000000" points="643.0253,-122 492.9747,-122 492.9747,-86 643.0253,-86 643.0253,-122"/>
<text text-anchor="middle" x="568" y="-99.8" font-family="Times,serif" font-size="14.00" fill="#000000">BreadcrumbComponent</text>
</g>
<!-- LayoutModule -->
<g id="node5" class="node">
<title>LayoutModule</title>
<polygon fill="#8dd3c7" stroke="#000000" points="318.7078,-187 315.7078,-191 294.7078,-191 291.7078,-187 219.2922,-187 219.2922,-151 318.7078,-151 318.7078,-187"/>
<text text-anchor="middle" x="269" y="-164.8" font-family="Times,serif" font-size="14.00" fill="#000000">LayoutModule</text>
</g>
<!-- BreadcrumbComponent&#45;&gt;LayoutModule -->
<g id="edge1" class="edge">
<title>BreadcrumbComponent&#45;&gt;LayoutModule</title>
<path fill="none" stroke="#000000" d="M594.1708,-122.2667C594.1708,-140.5552 594.1708,-166 594.1708,-166 594.1708,-166 328.7404,-166 328.7404,-166"/>
<polygon fill="#000000" stroke="#000000" points="328.7404,-162.5001 318.7404,-166 328.7404,-169.5001 328.7404,-162.5001"/>
</g>
<!-- HeaderComponent -->
<g id="node2" class="node">
<title>HeaderComponent</title>
<polygon fill="#ffffb3" stroke="#000000" points="474.7437,-122 353.2563,-122 353.2563,-86 474.7437,-86 474.7437,-122"/>
<text text-anchor="middle" x="414" y="-99.8" font-family="Times,serif" font-size="14.00" fill="#000000">HeaderComponent</text>
</g>
<!-- HeaderComponent&#45;&gt;LayoutModule -->
<g id="edge2" class="edge">
<title>HeaderComponent&#45;&gt;LayoutModule</title>
<path fill="none" stroke="#000000" d="M434.2906,-122.0091C434.2906,-138.0494 434.2906,-159 434.2906,-159 434.2906,-159 329.0412,-159 329.0412,-159"/>
<polygon fill="#000000" stroke="#000000" points="329.0412,-155.5001 319.0412,-159 329.0411,-162.5001 329.0412,-155.5001"/>
</g>
<!-- SideMenuComponent -->
<g id="node3" class="node">
<title>SideMenuComponent</title>
<polygon fill="#ffffb3" stroke="#000000" points="335.3795,-122 196.6205,-122 196.6205,-86 335.3795,-86 335.3795,-122"/>
<text text-anchor="middle" x="266" y="-99.8" font-family="Times,serif" font-size="14.00" fill="#000000">SideMenuComponent</text>
</g>
<!-- SideMenuComponent&#45;&gt;LayoutModule -->
<g id="edge3" class="edge">
<title>SideMenuComponent&#45;&gt;LayoutModule</title>
<path fill="none" stroke="#000000" d="M269,-122.1061C269,-122.1061 269,-140.991 269,-140.991"/>
<polygon fill="#000000" stroke="#000000" points="265.5001,-140.9909 269,-150.991 272.5001,-140.991 265.5001,-140.9909"/>
</g>
<!-- StaticMenuComponent -->
<g id="node4" class="node">
<title>StaticMenuComponent</title>
<polygon fill="#ffffb3" stroke="#000000" points="178.8753,-122 33.1247,-122 33.1247,-86 178.8753,-86 178.8753,-122"/>
<text text-anchor="middle" x="106" y="-99.8" font-family="Times,serif" font-size="14.00" fill="#000000">StaticMenuComponent</text>
</g>
<!-- StaticMenuComponent&#45;&gt;LayoutModule -->
<g id="edge4" class="edge">
<title>StaticMenuComponent&#45;&gt;LayoutModule</title>
<path fill="none" stroke="#000000" d="M126.8125,-122.0225C126.8125,-139.3734 126.8125,-163 126.8125,-163 126.8125,-163 209.2697,-163 209.2697,-163"/>
<polygon fill="#000000" stroke="#000000" points="209.2698,-166.5001 219.2697,-163 209.2697,-159.5001 209.2698,-166.5001"/>
</g>
<!-- BreadcrumbComponent  -->
<g id="node6" class="node">
<title>BreadcrumbComponent </title>
<polygon fill="#fb8072" stroke="#000000" points="650.0246,-252 495.9754,-252 495.9754,-216 650.0246,-216 650.0246,-252"/>
<text text-anchor="middle" x="573" y="-229.8" font-family="Times,serif" font-size="14.00" fill="#000000">BreadcrumbComponent </text>
</g>
<!-- LayoutModule&#45;&gt;BreadcrumbComponent  -->
<g id="edge5" class="edge">
<title>LayoutModule&#45;&gt;BreadcrumbComponent </title>
<path fill="none" stroke="#000000" stroke-dasharray="5,2" d="M318.6763,-173C398.1612,-173 545.0792,-173 545.0792,-173 545.0792,-173 545.0792,-205.698 545.0792,-205.698"/>
<polygon fill="#000000" stroke="#000000" points="541.5793,-205.698 545.0792,-215.698 548.5793,-205.698 541.5793,-205.698"/>
</g>
<!-- HeaderComponent  -->
<g id="node7" class="node">
<title>HeaderComponent </title>
<polygon fill="#fb8072" stroke="#000000" points="477.7436,-252 352.2564,-252 352.2564,-216 477.7436,-216 477.7436,-252"/>
<text text-anchor="middle" x="415" y="-229.8" font-family="Times,serif" font-size="14.00" fill="#000000">HeaderComponent </text>
</g>
<!-- LayoutModule&#45;&gt;HeaderComponent  -->
<g id="edge6" class="edge">
<title>LayoutModule&#45;&gt;HeaderComponent </title>
<path fill="none" stroke="#000000" stroke-dasharray="5,2" d="M318.6468,-180C353.4242,-180 393.7094,-180 393.7094,-180 393.7094,-180 393.7094,-205.7181 393.7094,-205.7181"/>
<polygon fill="#000000" stroke="#000000" points="390.2095,-205.718 393.7094,-215.7181 397.2095,-205.7181 390.2095,-205.718"/>
</g>
<!-- SideMenuComponent  -->
<g id="node8" class="node">
<title>SideMenuComponent </title>
<polygon fill="#fb8072" stroke="#000000" points="334.3799,-252 191.6201,-252 191.6201,-216 334.3799,-216 334.3799,-252"/>
<text text-anchor="middle" x="263" y="-229.8" font-family="Times,serif" font-size="14.00" fill="#000000">SideMenuComponent </text>
</g>
<!-- LayoutModule&#45;&gt;SideMenuComponent  -->
<g id="edge7" class="edge">
<title>LayoutModule&#45;&gt;SideMenuComponent </title>
<path fill="none" stroke="#000000" stroke-dasharray="5,2" d="M269,-187.1061C269,-187.1061 269,-205.991 269,-205.991"/>
<polygon fill="#000000" stroke="#000000" points="265.5001,-205.9909 269,-215.991 272.5001,-205.991 265.5001,-205.9909"/>
</g>
<!-- StaticMenuComponent  -->
<g id="node9" class="node">
<title>StaticMenuComponent </title>
<polygon fill="#fb8072" stroke="#000000" points="173.8757,-252 24.1243,-252 24.1243,-216 173.8757,-216 173.8757,-252"/>
<text text-anchor="middle" x="99" y="-229.8" font-family="Times,serif" font-size="14.00" fill="#000000">StaticMenuComponent </text>
</g>
<!-- LayoutModule&#45;&gt;StaticMenuComponent  -->
<g id="edge8" class="edge">
<title>LayoutModule&#45;&gt;StaticMenuComponent </title>
<path fill="none" stroke="#000000" stroke-dasharray="5,2" d="M219.326,-175C163.3101,-175 79.9375,-175 79.9375,-175 79.9375,-175 79.9375,-205.9775 79.9375,-205.9775"/>
<polygon fill="#000000" stroke="#000000" points="76.4376,-205.9774 79.9375,-215.9775 83.4376,-205.9775 76.4376,-205.9774"/>
</g>
</g>
</svg>
