<?xml version="1.0" encoding="UTF-8" standalone="no"?>
<!DOCTYPE svg PUBLIC "-//W3C//DTD SVG 1.1//EN"
 "http://www.w3.org/Graphics/SVG/1.1/DTD/svg11.dtd">
<!-- Generated by graphviz version 2.40.1 (20161225.0304)
 -->
<!-- Title: dependencies Pages: 1 -->
<svg width="504pt" height="284pt"
 viewBox="0.00 0.00 504.00 284.00" xmlns="http://www.w3.org/2000/svg" xmlns:xlink="http://www.w3.org/1999/xlink">
<g id="graph0" class="graph" transform="scale(1 1) rotate(0) translate(4 280)">
<title>dependencies</title>
<polygon fill="#ffffff" stroke="transparent" points="-4,4 -4,-280 500,-280 500,4 -4,4"/>
<text text-anchor="start" x="227.0091" y="-42.4" font-family="sans-serif" font-weight="bold" font-size="14.00" fill="#000000">Legend</text>
<polygon fill="#ffffb3" stroke="transparent" points="14,-10 14,-30 34,-30 34,-10 14,-10"/>
<text text-anchor="start" x="37.629" y="-15.4" font-family="sans-serif" font-size="14.00" fill="#000000"> &#160;Declarations</text>
<polygon fill="#8dd3c7" stroke="transparent" points="127,-10 127,-30 147,-30 147,-10 127,-10"/>
<text text-anchor="start" x="150.7251" y="-15.4" font-family="sans-serif" font-size="14.00" fill="#000000"> &#160;Module</text>
<polygon fill="#80b1d3" stroke="transparent" points="213,-10 213,-30 233,-30 233,-10 213,-10"/>
<text text-anchor="start" x="236.7812" y="-15.4" font-family="sans-serif" font-size="14.00" fill="#000000"> &#160;Bootstrap</text>
<polygon fill="#fdb462" stroke="transparent" points="310,-10 310,-30 330,-30 330,-10 310,-10"/>
<text text-anchor="start" x="333.6732" y="-15.4" font-family="sans-serif" font-size="14.00" fill="#000000"> &#160;Providers</text>
<polygon fill="#fb8072" stroke="transparent" points="406,-10 406,-30 426,-30 426,-10 406,-10"/>
<text text-anchor="start" x="429.7258" y="-15.4" font-family="sans-serif" font-size="14.00" fill="#000000"> &#160;Exports</text>
<g id="clust1" class="cluster">
<title>cluster_MainTabsModule</title>
<polygon fill="none" stroke="#000000" stroke-dasharray="1,5" points="97,-70 97,-268 399,-268 399,-70 97,-70"/>
</g>
<g id="clust2" class="cluster">
<title>cluster_MainTabsModule_declarations</title>
<polygon fill="none" stroke="#000000" points="237,-78 237,-130 391,-130 391,-78 237,-78"/>
</g>
<g id="clust4" class="cluster">
<title>cluster_MainTabsModule_imports</title>
<polygon fill="none" stroke="#000000" points="105,-78 105,-130 229,-130 229,-78 105,-78"/>
</g>
<g id="clust5" class="cluster">
<title>cluster_MainTabsModule_exports</title>
<polygon fill="none" stroke="#000000" points="169,-208 169,-260 327,-260 327,-208 169,-208"/>
</g>
<!-- MainTabsComponent -->
<g id="node1" class="node">
<title>MainTabsComponent</title>
<polygon fill="#ffffb3" stroke="#000000" points="383.094,-122 244.906,-122 244.906,-86 383.094,-86 383.094,-122"/>
<text text-anchor="middle" x="314" y="-99.8" font-family="Times,serif" font-size="14.00" fill="#000000">MainTabsComponent</text>
</g>
<!-- MainTabsModule -->
<g id="node2" class="node">
<title>MainTabsModule</title>
<polygon fill="#8dd3c7" stroke="#000000" points="306.3118,-187 303.3118,-191 282.3118,-191 279.3118,-187 189.6882,-187 189.6882,-151 306.3118,-151 306.3118,-187"/>
<text text-anchor="middle" x="248" y="-164.8" font-family="Times,serif" font-size="14.00" fill="#000000">MainTabsModule</text>
</g>
<!-- MainTabsComponent&#45;&gt;MainTabsModule -->
<g id="edge1" class="edge">
<title>MainTabsComponent&#45;&gt;MainTabsModule</title>
<path fill="none" stroke="#000000" d="M275.5544,-122.1061C275.5544,-122.1061 275.5544,-140.991 275.5544,-140.991"/>
<polygon fill="#000000" stroke="#000000" points="272.0544,-140.9909 275.5544,-150.991 279.0544,-140.991 272.0544,-140.9909"/>
</g>
<!-- MainTabsComponent  -->
<g id="node4" class="node">
<title>MainTabsComponent </title>
<polygon fill="#fb8072" stroke="#000000" points="318.5946,-252 177.4054,-252 177.4054,-216 318.5946,-216 318.5946,-252"/>
<text text-anchor="middle" x="248" y="-229.8" font-family="Times,serif" font-size="14.00" fill="#000000">MainTabsComponent </text>
</g>
<!-- MainTabsModule&#45;&gt;MainTabsComponent  -->
<g id="edge3" class="edge">
<title>MainTabsModule&#45;&gt;MainTabsComponent </title>
<path fill="none" stroke="#000000" stroke-dasharray="5,2" d="M248,-187.1061C248,-187.1061 248,-205.991 248,-205.991"/>
<polygon fill="#000000" stroke="#000000" points="244.5001,-205.9909 248,-215.991 251.5001,-205.991 244.5001,-205.9909"/>
</g>
<!-- SegmentModule -->
<g id="node3" class="node">
<title>SegmentModule</title>
<polygon fill="#8dd3c7" stroke="#000000" points="221.0438,-122 218.0438,-126 197.0438,-126 194.0438,-122 112.9562,-122 112.9562,-86 221.0438,-86 221.0438,-122"/>
<text text-anchor="middle" x="167" y="-99.8" font-family="Times,serif" font-size="14.00" fill="#000000">SegmentModule</text>
</g>
<!-- SegmentModule&#45;&gt;MainTabsModule -->
<g id="edge2" class="edge">
<title>SegmentModule&#45;&gt;MainTabsModule</title>
<path fill="none" stroke="#000000" d="M205.5579,-122.1061C205.5579,-122.1061 205.5579,-140.991 205.5579,-140.991"/>
<polygon fill="#000000" stroke="#000000" points="202.0579,-140.9909 205.5579,-150.991 209.0579,-140.991 202.0579,-140.9909"/>
</g>
</g>
</svg>
