<?xml version="1.0" encoding="UTF-8" standalone="no"?>
<!DOCTYPE svg PUBLIC "-//W3C//DTD SVG 1.1//EN"
 "http://www.w3.org/Graphics/SVG/1.1/DTD/svg11.dtd">
<!-- Generated by graphviz version 2.40.1 (20161225.0304)
 -->
<!-- Title: dependencies Pages: 1 -->
<svg width="2457pt" height="510pt"
 viewBox="0.00 0.00 2457.00 510.00" xmlns="http://www.w3.org/2000/svg" xmlns:xlink="http://www.w3.org/1999/xlink">
<g id="graph0" class="graph" transform="scale(1 1) rotate(0) translate(4 506)">
<title>dependencies</title>
<polygon fill="#ffffff" stroke="transparent" points="-4,4 -4,-506 2453,-506 2453,4 -4,4"/>
<text text-anchor="start" x="1203.5091" y="-42.4" font-family="sans-serif" font-weight="bold" font-size="14.00" fill="#000000">Legend</text>
<polygon fill="#ffffb3" stroke="transparent" points="990.5,-10 990.5,-30 1010.5,-30 1010.5,-10 990.5,-10"/>
<text text-anchor="start" x="1014.129" y="-15.4" font-family="sans-serif" font-size="14.00" fill="#000000"> &#160;Declarations</text>
<polygon fill="#8dd3c7" stroke="transparent" points="1103.5,-10 1103.5,-30 1123.5,-30 1123.5,-10 1103.5,-10"/>
<text text-anchor="start" x="1127.2251" y="-15.4" font-family="sans-serif" font-size="14.00" fill="#000000"> &#160;Module</text>
<polygon fill="#80b1d3" stroke="transparent" points="1189.5,-10 1189.5,-30 1209.5,-30 1209.5,-10 1189.5,-10"/>
<text text-anchor="start" x="1213.2812" y="-15.4" font-family="sans-serif" font-size="14.00" fill="#000000"> &#160;Bootstrap</text>
<polygon fill="#fdb462" stroke="transparent" points="1286.5,-10 1286.5,-30 1306.5,-30 1306.5,-10 1286.5,-10"/>
<text text-anchor="start" x="1310.1732" y="-15.4" font-family="sans-serif" font-size="14.00" fill="#000000"> &#160;Providers</text>
<polygon fill="#fb8072" stroke="transparent" points="1382.5,-10 1382.5,-30 1402.5,-30 1402.5,-10 1382.5,-10"/>
<text text-anchor="start" x="1406.2258" y="-15.4" font-family="sans-serif" font-size="14.00" fill="#000000"> &#160;Exports</text>
<g id="clust1" class="cluster">
<title>cluster_AppModule</title>
<polygon fill="none" stroke="#000000" stroke-dasharray="1,5" points="8,-290 8,-494 1141,-494 1141,-290 8,-290"/>
</g>
<g id="clust2" class="cluster">
<title>cluster_AppModule_declarations</title>
<polygon fill="none" stroke="#000000" points="753,-298 753,-350 875,-350 875,-298 753,-298"/>
</g>
<g id="clust4" class="cluster">
<title>cluster_AppModule_imports</title>
<polygon fill="none" stroke="#000000" points="883,-298 883,-350 1133,-350 1133,-298 883,-298"/>
</g>
<g id="clust6" class="cluster">
<title>cluster_AppModule_bootstrap</title>
<polygon fill="none" stroke="#000000" points="587,-434 587,-486 711,-486 711,-434 587,-434"/>
</g>
<g id="clust7" class="cluster">
<title>cluster_AppModule_providers</title>
<polygon fill="none" stroke="#000000" points="16,-298 16,-350 745,-350 745,-298 16,-298"/>
</g>
<g id="clust8" class="cluster">
<title>cluster_LayoutModule</title>
<polygon fill="none" stroke="#000000" stroke-dasharray="1,5" points="1149,-358 1149,-426 2441,-426 2441,-358 1149,-358"/>
</g>
<g id="clust9" class="cluster">
<title>cluster_LayoutModule_declarations</title>
<polygon fill="none" stroke="#000000" points="1807,-366 1807,-418 2433,-418 2433,-366 1807,-366"/>
</g>
<g id="clust15" class="cluster">
<title>cluster_LayoutModule_exports</title>
<polygon fill="none" stroke="#000000" points="1157,-366 1157,-418 1799,-418 1799,-366 1157,-366"/>
</g>
<g id="clust18" class="cluster">
<title>cluster_MainTabsModule</title>
<polygon fill="none" stroke="#000000" stroke-dasharray="1,5" points="713,-214 713,-282 1181,-282 1181,-214 713,-214"/>
</g>
<g id="clust19" class="cluster">
<title>cluster_MainTabsModule_declarations</title>
<polygon fill="none" stroke="#000000" points="1019,-222 1019,-274 1173,-274 1173,-222 1019,-222"/>
</g>
<g id="clust21" class="cluster">
<title>cluster_MainTabsModule_imports</title>
<polygon fill="none" stroke="#000000" points="887,-222 887,-274 1011,-274 1011,-222 887,-222"/>
</g>
<g id="clust22" class="cluster">
<title>cluster_MainTabsModule_exports</title>
<polygon fill="none" stroke="#000000" points="721,-222 721,-274 879,-274 879,-222 721,-222"/>
</g>
<g id="clust25" class="cluster">
<title>cluster_SaveModalModule</title>
<polygon fill="none" stroke="#000000" stroke-dasharray="1,5" points="1528,-70 1528,-282 1708,-282 1708,-70 1528,-70"/>
</g>
<g id="clust26" class="cluster">
<title>cluster_SaveModalModule_declarations</title>
<polygon fill="none" stroke="#000000" points="1536,-78 1536,-130 1698,-130 1698,-78 1536,-78"/>
</g>
<g id="clust29" class="cluster">
<title>cluster_SaveModalModule_exports</title>
<polygon fill="none" stroke="#000000" points="1536,-222 1536,-274 1700,-274 1700,-222 1536,-222"/>
</g>
<g id="clust32" class="cluster">
<title>cluster_SegmentModule</title>
<polygon fill="none" stroke="#000000" stroke-dasharray="1,5" points="184,-138 184,-206 1520,-206 1520,-138 184,-138"/>
</g>
<g id="clust33" class="cluster">
<title>cluster_SegmentModule_declarations</title>
<polygon fill="none" stroke="#000000" points="494,-146 494,-198 1370,-198 1370,-146 494,-146"/>
</g>
<g id="clust39" class="cluster">
<title>cluster_SegmentModule_imports</title>
<polygon fill="none" stroke="#000000" points="192,-146 192,-198 328,-198 328,-146 192,-146"/>
</g>
<g id="clust40" class="cluster">
<title>cluster_SegmentModule_exports</title>
<polygon fill="none" stroke="#000000" points="336,-146 336,-198 486,-198 486,-146 336,-146"/>
</g>
<g id="clust42" class="cluster">
<title>cluster_SegmentModule_providers</title>
<polygon fill="none" stroke="#000000" points="1378,-146 1378,-198 1512,-198 1512,-146 1378,-146"/>
</g>
<g id="clust43" class="cluster">
<title>cluster_TextEditorModule</title>
<polygon fill="none" stroke="#000000" stroke-dasharray="1,5" points="90,-214 90,-282 434,-282 434,-214 90,-214"/>
</g>
<g id="clust44" class="cluster">
<title>cluster_TextEditorModule_declarations</title>
<polygon fill="none" stroke="#000000" points="268,-222 268,-274 426,-274 426,-222 268,-222"/>
</g>
<g id="clust47" class="cluster">
<title>cluster_TextEditorModule_exports</title>
<polygon fill="none" stroke="#000000" points="98,-222 98,-274 260,-274 260,-222 98,-222"/>
</g>
<!-- AppComponent -->
<g id="node1" class="node">
<title>AppComponent</title>
<polygon fill="#ffffb3" stroke="#000000" points="866.9399,-342 761.0601,-342 761.0601,-306 866.9399,-306 866.9399,-342"/>
<text text-anchor="middle" x="814" y="-319.8" font-family="Times,serif" font-size="14.00" fill="#000000">AppComponent</text>
</g>
<!-- AppModule -->
<g id="node2" class="node">
<title>AppModule</title>
<polygon fill="#8dd3c7" stroke="#000000" points="690.6571,-410 687.6571,-414 666.6571,-414 663.6571,-410 607.3429,-410 607.3429,-374 690.6571,-374 690.6571,-410"/>
<text text-anchor="middle" x="649" y="-387.8" font-family="Times,serif" font-size="14.00" fill="#000000">AppModule</text>
</g>
<!-- AppComponent&#45;&gt;AppModule -->
<g id="edge1" class="edge">
<title>AppComponent&#45;&gt;AppModule</title>
<path fill="none" stroke="#000000" d="M814,-342.0225C814,-359.3734 814,-383 814,-383 814,-383 701.0634,-383 701.0634,-383"/>
<polygon fill="#000000" stroke="#000000" points="701.0634,-379.5001 691.0634,-383 701.0634,-386.5001 701.0634,-379.5001"/>
</g>
<!-- AppComponent  -->
<g id="node5" class="node">
<title>AppComponent </title>
<polygon fill="#80b1d3" stroke="#000000" points="703.439,-478 594.561,-478 594.561,-442 703.439,-442 703.439,-478"/>
<text text-anchor="middle" x="649" y="-455.8" font-family="Times,serif" font-size="14.00" fill="#000000">AppComponent </text>
</g>
<!-- AppModule&#45;&gt;AppComponent  -->
<g id="edge4" class="edge">
<title>AppModule&#45;&gt;AppComponent </title>
<path fill="none" stroke="#000000" stroke-dasharray="1,5" d="M649,-410.2228C649,-410.2228 649,-431.7269 649,-431.7269"/>
<polygon fill="#000000" stroke="#000000" points="645.5001,-431.7269 649,-441.7269 652.5001,-431.727 645.5001,-431.7269"/>
</g>
<!-- LayoutModule -->
<g id="node3" class="node">
<title>LayoutModule</title>
<polygon fill="#8dd3c7" stroke="#000000" points="1124.7078,-342 1121.7078,-346 1100.7078,-346 1097.7078,-342 1025.2922,-342 1025.2922,-306 1124.7078,-306 1124.7078,-342"/>
<text text-anchor="middle" x="1075" y="-319.8" font-family="Times,serif" font-size="14.00" fill="#000000">LayoutModule</text>
</g>
<!-- LayoutModule&#45;&gt;AppModule -->
<g id="edge2" class="edge">
<title>LayoutModule&#45;&gt;AppModule</title>
<path fill="none" stroke="#000000" d="M1075,-342.2479C1075,-365.0179 1075,-401 1075,-401 1075,-401 701.0124,-401 701.0124,-401"/>
<polygon fill="#000000" stroke="#000000" points="701.0124,-397.5001 691.0124,-401 701.0123,-404.5001 701.0124,-397.5001"/>
</g>
<!-- BreadcrumbComponent  -->
<g id="node14" class="node">
<title>BreadcrumbComponent </title>
<polygon fill="#fb8072" stroke="#000000" points="1791.0246,-410 1636.9754,-410 1636.9754,-374 1791.0246,-374 1791.0246,-410"/>
<text text-anchor="middle" x="1714" y="-387.8" font-family="Times,serif" font-size="14.00" fill="#000000">BreadcrumbComponent </text>
</g>
<!-- LayoutModule&#45;&gt;BreadcrumbComponent  -->
<g id="edge13" class="edge">
<title>LayoutModule&#45;&gt;BreadcrumbComponent </title>
<path fill="none" stroke="#000000" stroke-dasharray="5,2" d="M1124.7644,-326C1266.9193,-326 1664.6424,-326 1664.6424,-326 1664.6424,-326 1664.6424,-363.9652 1664.6424,-363.9652"/>
<polygon fill="#000000" stroke="#000000" points="1661.1424,-363.9652 1664.6424,-373.9652 1668.1424,-363.9652 1661.1424,-363.9652"/>
</g>
<!-- HeaderComponent  -->
<g id="node15" class="node">
<title>HeaderComponent </title>
<polygon fill="#fb8072" stroke="#000000" points="1618.7436,-410 1493.2564,-410 1493.2564,-374 1618.7436,-374 1618.7436,-410"/>
<text text-anchor="middle" x="1556" y="-387.8" font-family="Times,serif" font-size="14.00" fill="#000000">HeaderComponent </text>
</g>
<!-- LayoutModule&#45;&gt;HeaderComponent  -->
<g id="edge14" class="edge">
<title>LayoutModule&#45;&gt;HeaderComponent </title>
<path fill="none" stroke="#000000" stroke-dasharray="5,2" d="M1124.8662,-330C1236.9051,-330 1498.8406,-330 1498.8406,-330 1498.8406,-330 1498.8406,-363.7333 1498.8406,-363.7333"/>
<polygon fill="#000000" stroke="#000000" points="1495.3407,-363.7333 1498.8406,-373.7333 1502.3407,-363.7333 1495.3407,-363.7333"/>
</g>
<!-- SideMenuComponent  -->
<g id="node16" class="node">
<title>SideMenuComponent </title>
<polygon fill="#fb8072" stroke="#000000" points="1475.3799,-410 1332.6201,-410 1332.6201,-374 1475.3799,-374 1475.3799,-410"/>
<text text-anchor="middle" x="1404" y="-387.8" font-family="Times,serif" font-size="14.00" fill="#000000">SideMenuComponent </text>
</g>
<!-- LayoutModule&#45;&gt;SideMenuComponent  -->
<g id="edge15" class="edge">
<title>LayoutModule&#45;&gt;SideMenuComponent </title>
<path fill="none" stroke="#000000" stroke-dasharray="5,2" d="M1124.6563,-334C1203.2426,-334 1347.4585,-334 1347.4585,-334 1347.4585,-334 1347.4585,-363.9664 1347.4585,-363.9664"/>
<polygon fill="#000000" stroke="#000000" points="1343.9585,-363.9663 1347.4585,-373.9664 1350.9585,-363.9664 1343.9585,-363.9663"/>
</g>
<!-- StaticMenuComponent  -->
<g id="node17" class="node">
<title>StaticMenuComponent </title>
<polygon fill="#fb8072" stroke="#000000" points="1314.8757,-410 1165.1243,-410 1165.1243,-374 1314.8757,-374 1314.8757,-410"/>
<text text-anchor="middle" x="1240" y="-387.8" font-family="Times,serif" font-size="14.00" fill="#000000">StaticMenuComponent </text>
</g>
<!-- LayoutModule&#45;&gt;StaticMenuComponent  -->
<g id="edge16" class="edge">
<title>LayoutModule&#45;&gt;StaticMenuComponent </title>
<path fill="none" stroke="#000000" stroke-dasharray="5,2" d="M1124.658,-338C1149.2456,-338 1173.7376,-338 1173.7376,-338 1173.7376,-338 1173.7376,-363.7181 1173.7376,-363.7181"/>
<polygon fill="#000000" stroke="#000000" points="1170.2376,-363.718 1173.7376,-373.7181 1177.2376,-363.7181 1170.2376,-363.718"/>
</g>
<!-- MainTabsModule -->
<g id="node4" class="node">
<title>MainTabsModule</title>
<polygon fill="#8dd3c7" stroke="#000000" points="1007.3118,-342 1004.3118,-346 983.3118,-346 980.3118,-342 890.6882,-342 890.6882,-306 1007.3118,-306 1007.3118,-342"/>
<text text-anchor="middle" x="949" y="-319.8" font-family="Times,serif" font-size="14.00" fill="#000000">MainTabsModule</text>
</g>
<!-- MainTabsModule&#45;&gt;AppModule -->
<g id="edge3" class="edge">
<title>MainTabsModule&#45;&gt;AppModule</title>
<path fill="none" stroke="#000000" d="M949,-342.2228C949,-362.3652 949,-392 949,-392 949,-392 700.7137,-392 700.7137,-392"/>
<polygon fill="#000000" stroke="#000000" points="700.7137,-388.5001 690.7137,-392 700.7137,-395.5001 700.7137,-388.5001"/>
</g>
<!-- MainTabsComponent  -->
<g id="node20" class="node">
<title>MainTabsComponent </title>
<polygon fill="#fb8072" stroke="#000000" points="870.5946,-266 729.4054,-266 729.4054,-230 870.5946,-230 870.5946,-266"/>
<text text-anchor="middle" x="800" y="-243.8" font-family="Times,serif" font-size="14.00" fill="#000000">MainTabsComponent </text>
</g>
<!-- MainTabsModule&#45;&gt;MainTabsComponent  -->
<g id="edge19" class="edge">
<title>MainTabsModule&#45;&gt;MainTabsComponent </title>
<path fill="none" stroke="#000000" stroke-dasharray="5,2" d="M890.5891,-324C884.6917,-324 880.8207,-324 880.8207,-324 880.8207,-324 880.8207,-248 880.8207,-248 880.8207,-248 879.8296,-248 879.8296,-248"/>
<polygon fill="#000000" stroke="#000000" points="880.9105,-244.5001 870.9105,-248 880.9104,-251.5001 880.9105,-244.5001"/>
</g>
<!-- BreadcrumbService -->
<g id="node6" class="node">
<title>BreadcrumbService</title>
<ellipse fill="#fdb462" stroke="#000000" cx="649" cy="-324" rx="87.9394" ry="18"/>
<text text-anchor="middle" x="649" y="-319.8" font-family="Times,serif" font-size="14.00" fill="#000000">BreadcrumbService</text>
</g>
<!-- BreadcrumbService&#45;&gt;AppModule -->
<g id="edge5" class="edge">
<title>BreadcrumbService&#45;&gt;AppModule</title>
<path fill="none" stroke="#000000" d="M649,-342.2228C649,-342.2228 649,-363.7269 649,-363.7269"/>
<polygon fill="#000000" stroke="#000000" points="645.5001,-363.7269 649,-373.7269 652.5001,-363.727 645.5001,-363.7269"/>
</g>
<!-- SaveModalService -->
<g id="node7" class="node">
<title>SaveModalService</title>
<ellipse fill="#fdb462" stroke="#000000" cx="459" cy="-324" rx="83.947" ry="18"/>
<text text-anchor="middle" x="459" y="-319.8" font-family="Times,serif" font-size="14.00" fill="#000000">SaveModalService</text>
</g>
<!-- SaveModalService&#45;&gt;AppModule -->
<g id="edge6" class="edge">
<title>SaveModalService&#45;&gt;AppModule</title>
<path fill="none" stroke="#000000" d="M459,-342.0225C459,-359.3734 459,-383 459,-383 459,-383 597.3037,-383 597.3037,-383"/>
<polygon fill="#000000" stroke="#000000" points="597.3037,-386.5001 607.3037,-383 597.3037,-379.5001 597.3037,-386.5001"/>
</g>
<!-- SegmentsService -->
<g id="node8" class="node">
<title>SegmentsService</title>
<ellipse fill="#fdb462" stroke="#000000" cx="279" cy="-324" rx="77.5839" ry="18"/>
<text text-anchor="middle" x="279" y="-319.8" font-family="Times,serif" font-size="14.00" fill="#000000">SegmentsService</text>
</g>
<!-- SegmentsService&#45;&gt;AppModule -->
<g id="edge7" class="edge">
<title>SegmentsService&#45;&gt;AppModule</title>
<path fill="none" stroke="#000000" d="M279,-342.2228C279,-362.3652 279,-392 279,-392 279,-392 597.2755,-392 597.2755,-392"/>
<polygon fill="#000000" stroke="#000000" points="597.2756,-395.5001 607.2755,-392 597.2755,-388.5001 597.2756,-395.5001"/>
</g>
<!-- SideMenuService -->
<g id="node9" class="node">
<title>SideMenuService</title>
<ellipse fill="#fdb462" stroke="#000000" cx="104" cy="-324" rx="79.874" ry="18"/>
<text text-anchor="middle" x="104" y="-319.8" font-family="Times,serif" font-size="14.00" fill="#000000">SideMenuService</text>
</g>
<!-- SideMenuService&#45;&gt;AppModule -->
<g id="edge8" class="edge">
<title>SideMenuService&#45;&gt;AppModule</title>
<path fill="none" stroke="#000000" d="M104,-342.2479C104,-365.0179 104,-401 104,-401 104,-401 597.1397,-401 597.1397,-401"/>
<polygon fill="#000000" stroke="#000000" points="597.1397,-404.5001 607.1397,-401 597.1397,-397.5001 597.1397,-404.5001"/>
</g>
<!-- BreadcrumbComponent -->
<g id="node10" class="node">
<title>BreadcrumbComponent</title>
<polygon fill="#ffffb3" stroke="#000000" points="2425.0253,-410 2274.9747,-410 2274.9747,-374 2425.0253,-374 2425.0253,-410"/>
<text text-anchor="middle" x="2350" y="-387.8" font-family="Times,serif" font-size="14.00" fill="#000000">BreadcrumbComponent</text>
</g>
<!-- BreadcrumbComponent&#45;&gt;LayoutModule -->
<g id="edge9" class="edge">
<title>BreadcrumbComponent&#45;&gt;LayoutModule</title>
<path fill="none" stroke="#000000" d="M2350,-373.8015C2350,-349.6437 2350,-310 2350,-310 2350,-310 1134.9815,-310 1134.9815,-310"/>
<polygon fill="#000000" stroke="#000000" points="1134.9815,-306.5001 1124.9815,-310 1134.9815,-313.5001 1134.9815,-306.5001"/>
</g>
<!-- HeaderComponent -->
<g id="node11" class="node">
<title>HeaderComponent</title>
<polygon fill="#ffffb3" stroke="#000000" points="2256.7437,-410 2135.2563,-410 2135.2563,-374 2256.7437,-374 2256.7437,-410"/>
<text text-anchor="middle" x="2196" y="-387.8" font-family="Times,serif" font-size="14.00" fill="#000000">HeaderComponent</text>
</g>
<!-- HeaderComponent&#45;&gt;LayoutModule -->
<g id="edge10" class="edge">
<title>HeaderComponent&#45;&gt;LayoutModule</title>
<path fill="none" stroke="#000000" d="M2196,-373.9092C2196,-350.8672 2196,-314 2196,-314 2196,-314 1134.6144,-314 1134.6144,-314"/>
<polygon fill="#000000" stroke="#000000" points="1134.6144,-310.5001 1124.6144,-314 1134.6144,-317.5001 1134.6144,-310.5001"/>
</g>
<!-- SideMenuComponent -->
<g id="node12" class="node">
<title>SideMenuComponent</title>
<polygon fill="#ffffb3" stroke="#000000" points="2117.3795,-410 1978.6205,-410 1978.6205,-374 2117.3795,-374 2117.3795,-410"/>
<text text-anchor="middle" x="2048" y="-387.8" font-family="Times,serif" font-size="14.00" fill="#000000">SideMenuComponent</text>
</g>
<!-- SideMenuComponent&#45;&gt;LayoutModule -->
<g id="edge11" class="edge">
<title>SideMenuComponent&#45;&gt;LayoutModule</title>
<path fill="none" stroke="#000000" d="M2048,-373.7079C2048,-351.7943 2048,-318 2048,-318 2048,-318 1134.9258,-318 1134.9258,-318"/>
<polygon fill="#000000" stroke="#000000" points="1134.9259,-314.5001 1124.9258,-318 1134.9258,-321.5001 1134.9259,-314.5001"/>
</g>
<!-- StaticMenuComponent -->
<g id="node13" class="node">
<title>StaticMenuComponent</title>
<polygon fill="#ffffb3" stroke="#000000" points="1960.8753,-410 1815.1247,-410 1815.1247,-374 1960.8753,-374 1960.8753,-410"/>
<text text-anchor="middle" x="1888" y="-387.8" font-family="Times,serif" font-size="14.00" fill="#000000">StaticMenuComponent</text>
</g>
<!-- StaticMenuComponent&#45;&gt;LayoutModule -->
<g id="edge12" class="edge">
<title>StaticMenuComponent&#45;&gt;LayoutModule</title>
<path fill="none" stroke="#000000" d="M1888,-373.9733C1888,-353.2328 1888,-322 1888,-322 1888,-322 1134.633,-322 1134.633,-322"/>
<polygon fill="#000000" stroke="#000000" points="1134.633,-318.5001 1124.633,-322 1134.6329,-325.5001 1134.633,-318.5001"/>
</g>
<!-- MainTabsComponent -->
<g id="node18" class="node">
<title>MainTabsComponent</title>
<polygon fill="#ffffb3" stroke="#000000" points="1165.094,-266 1026.906,-266 1026.906,-230 1165.094,-230 1165.094,-266"/>
<text text-anchor="middle" x="1096" y="-243.8" font-family="Times,serif" font-size="14.00" fill="#000000">MainTabsComponent</text>
</g>
<!-- MainTabsComponent&#45;&gt;MainTabsModule -->
<g id="edge17" class="edge">
<title>MainTabsComponent&#45;&gt;MainTabsModule</title>
<path fill="none" stroke="#000000" d="M1026.6985,-248C1020.3682,-248 1016.276,-248 1016.276,-248 1016.276,-248 1016.276,-324 1016.276,-324 1016.276,-324 1015.3686,-324 1015.3686,-324"/>
<polygon fill="#000000" stroke="#000000" points="1017.2029,-320.5001 1007.2028,-324 1017.2028,-327.5001 1017.2029,-320.5001"/>
</g>
<!-- SegmentModule -->
<g id="node19" class="node">
<title>SegmentModule</title>
<polygon fill="#8dd3c7" stroke="#000000" points="1003.0438,-266 1000.0438,-270 979.0438,-270 976.0438,-266 894.9562,-266 894.9562,-230 1003.0438,-230 1003.0438,-266"/>
<text text-anchor="middle" x="949" y="-243.8" font-family="Times,serif" font-size="14.00" fill="#000000">SegmentModule</text>
</g>
<!-- SegmentModule&#45;&gt;MainTabsModule -->
<g id="edge18" class="edge">
<title>SegmentModule&#45;&gt;MainTabsModule</title>
<path fill="none" stroke="#000000" d="M949,-266.0109C949,-266.0109 949,-295.855 949,-295.855"/>
<polygon fill="#000000" stroke="#000000" points="945.5001,-295.8549 949,-305.855 952.5001,-295.855 945.5001,-295.8549"/>
</g>
<!-- SegmentComponent  -->
<g id="node30" class="node">
<title>SegmentComponent </title>
<polygon fill="#fb8072" stroke="#000000" points="477.8255,-190 344.1745,-190 344.1745,-154 477.8255,-154 477.8255,-190"/>
<text text-anchor="middle" x="411" y="-167.8" font-family="Times,serif" font-size="14.00" fill="#000000">SegmentComponent </text>
</g>
<!-- SegmentModule&#45;&gt;SegmentComponent  -->
<g id="edge29" class="edge">
<title>SegmentModule&#45;&gt;SegmentComponent </title>
<path fill="none" stroke="#000000" stroke-dasharray="5,2" d="M916.4372,-229.8495C916.4372,-217.7292 916.4372,-204 916.4372,-204 916.4372,-204 447.9525,-204 447.9525,-204 447.9525,-204 447.9525,-200.2434 447.9525,-200.2434"/>
<polygon fill="#000000" stroke="#000000" points="451.4526,-200.2434 447.9525,-190.2434 444.4526,-200.2434 451.4526,-200.2434"/>
</g>
<!-- SaveModalComponent -->
<g id="node21" class="node">
<title>SaveModalComponent</title>
<polygon fill="#ffffb3" stroke="#000000" points="1689.594,-122 1544.406,-122 1544.406,-86 1689.594,-86 1689.594,-122"/>
<text text-anchor="middle" x="1617" y="-99.8" font-family="Times,serif" font-size="14.00" fill="#000000">SaveModalComponent</text>
</g>
<!-- SaveModalModule -->
<g id="node22" class="node">
<title>SaveModalModule</title>
<polygon fill="#8dd3c7" stroke="#000000" points="1678.8118,-190 1675.8118,-194 1654.8118,-194 1651.8118,-190 1555.1882,-190 1555.1882,-154 1678.8118,-154 1678.8118,-190"/>
<text text-anchor="middle" x="1617" y="-167.8" font-family="Times,serif" font-size="14.00" fill="#000000">SaveModalModule</text>
</g>
<!-- SaveModalComponent&#45;&gt;SaveModalModule -->
<g id="edge20" class="edge">
<title>SaveModalComponent&#45;&gt;SaveModalModule</title>
<path fill="none" stroke="#000000" d="M1617,-122.2228C1617,-122.2228 1617,-143.7269 1617,-143.7269"/>
<polygon fill="#000000" stroke="#000000" points="1613.5001,-143.7269 1617,-153.7269 1620.5001,-143.727 1613.5001,-143.7269"/>
</g>
<!-- SaveModalModule&#45;&gt;SegmentModule -->
<g id="edge27" class="edge">
<title>SaveModalModule&#45;&gt;SegmentModule</title>
<path fill="none" stroke="#000000" d="M1596.4481,-190.2819C1596.4481,-205.9478 1596.4481,-226 1596.4481,-226 1596.4481,-226 992.4171,-226 992.4171,-226 992.4171,-226 992.4171,-226.3832 992.4171,-226.3832"/>
<polygon fill="#000000" stroke="#000000" points="988.9174,-219.832 992.4171,-229.8321 995.9174,-219.8322 988.9174,-219.832"/>
</g>
<!-- SaveModalComponent  -->
<g id="node23" class="node">
<title>SaveModalComponent </title>
<polygon fill="#fb8072" stroke="#000000" points="1692.0946,-266 1543.9054,-266 1543.9054,-230 1692.0946,-230 1692.0946,-266"/>
<text text-anchor="middle" x="1618" y="-243.8" font-family="Times,serif" font-size="14.00" fill="#000000">SaveModalComponent </text>
</g>
<!-- SaveModalModule&#45;&gt;SaveModalComponent  -->
<g id="edge21" class="edge">
<title>SaveModalModule&#45;&gt;SaveModalComponent </title>
<path fill="none" stroke="#000000" stroke-dasharray="5,2" d="M1637.5519,-190.0109C1637.5519,-190.0109 1637.5519,-219.855 1637.5519,-219.855"/>
<polygon fill="#000000" stroke="#000000" points="1634.052,-219.8549 1637.5519,-229.855 1641.052,-219.855 1634.052,-219.8549"/>
</g>
<!-- SegmentAuditComponent -->
<g id="node24" class="node">
<title>SegmentAuditComponent</title>
<polygon fill="#ffffb3" stroke="#000000" points="1362.2133,-190 1199.7867,-190 1199.7867,-154 1362.2133,-154 1362.2133,-190"/>
<text text-anchor="middle" x="1281" y="-167.8" font-family="Times,serif" font-size="14.00" fill="#000000">SegmentAuditComponent</text>
</g>
<!-- SegmentAuditComponent&#45;&gt;SegmentModule -->
<g id="edge22" class="edge">
<title>SegmentAuditComponent&#45;&gt;SegmentModule</title>
<path fill="none" stroke="#000000" d="M1257.2905,-190.0439C1257.2905,-202.5633 1257.2905,-217 1257.2905,-217 1257.2905,-217 970.7086,-217 970.7086,-217 970.7086,-217 970.7086,-219.9672 970.7086,-219.9672"/>
<polygon fill="#000000" stroke="#000000" points="967.2087,-219.9671 970.7086,-229.9672 974.2087,-219.9672 967.2087,-219.9671"/>
</g>
<!-- SegmentComponent -->
<g id="node25" class="node">
<title>SegmentComponent</title>
<polygon fill="#ffffb3" stroke="#000000" points="1182.3258,-190 1051.6742,-190 1051.6742,-154 1182.3258,-154 1182.3258,-190"/>
<text text-anchor="middle" x="1117" y="-167.8" font-family="Times,serif" font-size="14.00" fill="#000000">SegmentComponent</text>
</g>
<!-- SegmentComponent&#45;&gt;SegmentModule -->
<g id="edge23" class="edge">
<title>SegmentComponent&#45;&gt;SegmentModule</title>
<path fill="none" stroke="#000000" d="M1108.4422,-190.1025C1108.4422,-201.0859 1108.4422,-213 1108.4422,-213 1108.4422,-213 959.8543,-213 959.8543,-213 959.8543,-213 959.8543,-219.68 959.8543,-219.68"/>
<polygon fill="#000000" stroke="#000000" points="956.3544,-219.6799 959.8543,-229.68 963.3544,-219.68 956.3544,-219.6799"/>
</g>
<!-- SegmentConfigComponent -->
<g id="node26" class="node">
<title>SegmentConfigComponent</title>
<polygon fill="#ffffb3" stroke="#000000" points="1033.7133,-190 864.2867,-190 864.2867,-154 1033.7133,-154 1033.7133,-190"/>
<text text-anchor="middle" x="949" y="-167.8" font-family="Times,serif" font-size="14.00" fill="#000000">SegmentConfigComponent</text>
</g>
<!-- SegmentConfigComponent&#45;&gt;SegmentModule -->
<g id="edge24" class="edge">
<title>SegmentConfigComponent&#45;&gt;SegmentModule</title>
<path fill="none" stroke="#000000" d="M949,-190.0109C949,-190.0109 949,-219.855 949,-219.855"/>
<polygon fill="#000000" stroke="#000000" points="945.5001,-219.8549 949,-229.855 952.5001,-219.855 945.5001,-219.8549"/>
</g>
<!-- SegmentDataComponent -->
<g id="node27" class="node">
<title>SegmentDataComponent</title>
<polygon fill="#ffffb3" stroke="#000000" points="846.252,-190 689.748,-190 689.748,-154 846.252,-154 846.252,-190"/>
<text text-anchor="middle" x="768" y="-167.8" font-family="Times,serif" font-size="14.00" fill="#000000">SegmentDataComponent</text>
</g>
<!-- SegmentDataComponent&#45;&gt;SegmentModule -->
<g id="edge25" class="edge">
<title>SegmentDataComponent&#45;&gt;SegmentModule</title>
<path fill="none" stroke="#000000" d="M787.7895,-190.1223C787.7895,-192.9729 787.7895,-195 787.7895,-195 787.7895,-195 938.1457,-195 938.1457,-195 938.1457,-195 938.1457,-219.7604 938.1457,-219.7604"/>
<polygon fill="#000000" stroke="#000000" points="934.6458,-219.7604 938.1457,-229.7604 941.6458,-219.7604 934.6458,-219.7604"/>
</g>
<!-- SegmentDetailsComponent -->
<g id="node28" class="node">
<title>SegmentDetailsComponent</title>
<polygon fill="#ffffb3" stroke="#000000" points="671.9776,-190 502.0224,-190 502.0224,-154 671.9776,-154 671.9776,-190"/>
<text text-anchor="middle" x="587" y="-167.8" font-family="Times,serif" font-size="14.00" fill="#000000">SegmentDetailsComponent</text>
</g>
<!-- SegmentDetailsComponent&#45;&gt;SegmentModule -->
<g id="edge26" class="edge">
<title>SegmentDetailsComponent&#45;&gt;SegmentModule</title>
<path fill="none" stroke="#000000" d="M616.6347,-190.1592C616.6347,-195.0433 616.6347,-199 616.6347,-199 616.6347,-199 927.2914,-199 927.2914,-199 927.2914,-199 927.2914,-219.7542 927.2914,-219.7542"/>
<polygon fill="#000000" stroke="#000000" points="923.7915,-219.7542 927.2914,-229.7542 930.7915,-219.7542 923.7915,-219.7542"/>
</g>
<!-- TextEditorModule -->
<g id="node29" class="node">
<title>TextEditorModule</title>
<polygon fill="#8dd3c7" stroke="#000000" points="320.2022,-190 317.2022,-194 296.2022,-194 293.2022,-190 199.7978,-190 199.7978,-154 320.2022,-154 320.2022,-190"/>
<text text-anchor="middle" x="260" y="-167.8" font-family="Times,serif" font-size="14.00" fill="#000000">TextEditorModule</text>
</g>
<!-- TextEditorModule&#45;&gt;SegmentModule -->
<g id="edge28" class="edge">
<title>TextEditorModule&#45;&gt;SegmentModule</title>
<path fill="none" stroke="#000000" d="M305.4032,-190.4218C305.4032,-199.2791 305.4032,-208 305.4032,-208 305.4032,-208 905.5829,-208 905.5829,-208 905.5829,-208 905.5829,-219.8726 905.5829,-219.8726"/>
<polygon fill="#000000" stroke="#000000" points="902.083,-219.8725 905.5829,-229.8726 909.083,-219.8726 902.083,-219.8725"/>
</g>
<!-- TextEditorComponent  -->
<g id="node33" class="node">
<title>TextEditorComponent </title>
<polygon fill="#fb8072" stroke="#000000" points="251.9854,-266 106.0146,-266 106.0146,-230 251.9854,-230 251.9854,-266"/>
<text text-anchor="middle" x="179" y="-243.8" font-family="Times,serif" font-size="14.00" fill="#000000">TextEditorComponent </text>
</g>
<!-- TextEditorModule&#45;&gt;TextEditorComponent  -->
<g id="edge32" class="edge">
<title>TextEditorModule&#45;&gt;TextEditorComponent </title>
<path fill="none" stroke="#000000" stroke-dasharray="5,2" d="M225.8207,-190.0109C225.8207,-190.0109 225.8207,-219.855 225.8207,-219.855"/>
<polygon fill="#000000" stroke="#000000" points="222.3207,-219.8549 225.8207,-229.855 229.3207,-219.855 222.3207,-219.8549"/>
</g>
<!-- auditService -->
<g id="node31" class="node">
<title>auditService</title>
<ellipse fill="#fdb462" stroke="#000000" cx="1445" cy="-172" rx="59.1064" ry="18"/>
<text text-anchor="middle" x="1445" y="-167.8" font-family="Times,serif" font-size="14.00" fill="#000000">auditService</text>
</g>
<!-- auditService&#45;&gt;SegmentModule -->
<g id="edge30" class="edge">
<title>auditService&#45;&gt;SegmentModule</title>
<path fill="none" stroke="#000000" d="M1430.4434,-189.4876C1430.4434,-203.9061 1430.4434,-222 1430.4434,-222 1430.4434,-222 981.5628,-222 981.5628,-222 981.5628,-222 981.5628,-222.7942 981.5628,-222.7942"/>
<polygon fill="#000000" stroke="#000000" points="978.063,-219.9421 981.5628,-229.9421 985.063,-219.9422 978.063,-219.9421"/>
</g>
<!-- TextEditorComponent -->
<g id="node32" class="node">
<title>TextEditorComponent</title>
<polygon fill="#ffffb3" stroke="#000000" points="417.9846,-266 276.0154,-266 276.0154,-230 417.9846,-230 417.9846,-266"/>
<text text-anchor="middle" x="347" y="-243.8" font-family="Times,serif" font-size="14.00" fill="#000000">TextEditorComponent</text>
</g>
<!-- TextEditorComponent&#45;&gt;TextEditorModule -->
<g id="edge31" class="edge">
<title>TextEditorComponent&#45;&gt;TextEditorModule</title>
<path fill="none" stroke="#000000" d="M290.7055,-229.9891C290.7055,-229.9891 290.7055,-200.145 290.7055,-200.145"/>
<polygon fill="#000000" stroke="#000000" points="294.2056,-200.145 290.7055,-190.145 287.2056,-200.1451 294.2056,-200.145"/>
</g>
</g>
</svg>
